<?xml version="1.0" standalone="no"?>
<!DOCTYPE svg PUBLIC "-//W3C//DTD SVG 1.1//EN" "http://www.w3.org/Graphics/SVG/1.1/DTD/svg11.dtd" >
<svg xmlns="http://www.w3.org/2000/svg" xmlns:xlink="http://www.w3.org/1999/xlink" version="1.1">
<metadata>
Created by FontForge 20170731 at Wed Apr 23 17:57:49 2003
 By Aleksey,,,
Copyright (c) The Font Bureau, Inc, 2003. All rights reserved.
</metadata>
<defs>
<font id="AmplitudeComp-Regular" horiz-adv-x="500" >
  <font-face 
    font-family="AmplitudeComp-Regular"
    font-weight="500"
    font-stretch="normal"
    units-per-em="1000"
    panose-1="2 0 6 6 4 0 0 2 0 4"
    ascent="800"
    descent="-200"
    x-height="524"
    cap-height="651"
    bbox="-41 -199 765 854"
    underline-thickness="20"
    underline-position="-153"
    unicode-range="U+0020-00FB"
  />
<missing-glyph 
 />
    <glyph glyph-name=".notdef" 
 />
    <glyph glyph-name=".null" horiz-adv-x="0" 
 />
    <glyph glyph-name="nonmarkingreturn" horiz-adv-x="148" 
 />
    <glyph glyph-name="space" unicode=" " horiz-adv-x="148" 
 />
    <glyph glyph-name="space" unicode="&#xa0;" horiz-adv-x="148" 
 />
    <glyph glyph-name="exclam" unicode="!" horiz-adv-x="176" 
d="M49 378v299h79v-299l-22 -209h-36zM88 -8q-20 0 -36 15.5t-16 39.5t16 39.5t36 15.5q21 0 36.5 -15.5t15.5 -39.5t-15.5 -39.5t-36.5 -15.5z" />
    <glyph glyph-name="quotedbl" unicode="&#x22;" horiz-adv-x="261" 
d="M151 554v123h75v-123l-22 -138h-31zM35 554v123h74v-123l-22 -138h-30z" />
    <glyph glyph-name="numbersign" unicode="#" horiz-adv-x="373" 
d="M81 172h-60l7 71h61l21 182h-60l8 71h60l19 155h47l-19 -155h80l19 155h47l-19 -155h61l-8 -71h-61l-21 -182h61l-8 -71h-61l-21 -172h-46l20 172h-81l-19 -172h-48zM217 239l22 189h-83l-22 -189h83z" />
    <glyph glyph-name="dollar" unicode="$" horiz-adv-x="313" 
d="M221 653q32 -7 55 -22l-11 -59q-14 5 -26.5 9.5t-26.5 7.5l-32 -222q26 -14 46 -30t33 -38t19.5 -53t6.5 -76q0 -89 -33 -134t-111 -45h-9q-3 0 -6 1l-17 -122l-45 7l17 122q-20 5 -35 12t-26 15l15 55q14 -6 27.5 -12t27.5 -10l36 252q-25 14 -43.5 28.5t-30.5 35
t-18 48t-6 67.5q0 94 34.5 132t100.5 38h13l15 101l45 -6l-15 -102v0zM167 594q-21 0 -35 -4.5t-22 -15.5t-11.5 -30.5t-3.5 -49.5q0 -22 1 -38t5.5 -27.5t13 -20.5t23.5 -18l29 204v0zM135 53q23 0 38.5 5.5t24.5 18.5t13 34.5t4 53.5q0 24 -1.5 42t-6 32t-14 25t-24.5 22
l-34 -233v0z" />
    <glyph glyph-name="percent" unicode="%" horiz-adv-x="541" 
d="M126 287q-54 0 -80 48.5t-26 140.5q0 89 27 136.5t80 47.5t80.5 -47t27.5 -135q0 -92 -28 -141.5t-81 -49.5zM377 651h52l-265 -651h-53zM411 -10q-52 0 -78.5 48.5t-26.5 139.5q0 90 27 137.5t80 47.5q54 0 81 -46.5t27 -136.5q0 -91 -28 -140.5t-82 -49.5zM127 337
q10 0 18 4.5t13 16t8 31t3 50.5v67q0 32 -3 52t-8 31.5t-13 15.5t-18 4t-18 -4.5t-13 -16t-8 -31.5t-3 -52v-67q0 -31 3 -50.5t8 -30.5t13 -15.5t18 -4.5zM412 39q21 0 32.5 21t11.5 82v66q0 32 -3 52.5t-8.5 32t-13.5 15.5t-19 4q-10 0 -17.5 -4.5t-13 -16t-8.5 -32
t-3 -52.5v-66q0 -31 3 -51t8.5 -31t13 -15.5t17.5 -4.5z" />
    <glyph glyph-name="ampersand" unicode="&#x26;" horiz-adv-x="389" 
d="M281 196q8 34 13.5 77.5t9.5 97.5h60l-8 -73q-5 -51 -14.5 -96.5t-23.5 -82.5l57 -119h-77l-35 73l-24 -57q-10 -8 -27.5 -16.5t-46.5 -8.5q-66 0 -104.5 46t-38.5 139q0 46 7 78.5t19.5 56.5t29.5 41t37 30q-23 48 -32.5 86t-9.5 77q0 72 33.5 107.5t81.5 35.5
q22 0 41.5 -7.5t33.5 -24.5t22.5 -44t8.5 -66q0 -43 -8 -68.5t-20 -45.5l-73 -48zM180 407q14 13 23.5 26t15.5 28.5t9 35t3 45.5q0 51 -11.5 68.5t-31.5 17.5t-32 -18t-12 -64q0 -35 8 -65t28 -74zM136 340q-20 -23 -28 -54t-8 -75v-51q0 -62 19 -86.5t54 -24.5
q23 0 41.5 12.5t34.5 41.5z" />
    <glyph glyph-name="quoteright" unicode="'" horiz-adv-x="159" 
d="M33 497l31 95l-23 6q-4 5 -8 13t-4 22q0 24 15 38t36 14q20 0 35 -14t15 -37q0 -20 -7 -36t-19 -35l-44 -77z" />
    <glyph glyph-name="parenleft" unicode="(" horiz-adv-x="200" 
d="M138 -93q-13 20 -31.5 55t-35 86.5t-28.5 118t-12 149.5q0 80 11.5 144.5t28.5 114t35.5 83.5t31.5 53h55q-20 -43 -36 -84.5t-27.5 -85t-17.5 -92t-6 -105.5v-56q0 -58 5.5 -106t16.5 -92.5t27.5 -89t38.5 -93.5h-56v0z" />
    <glyph glyph-name="parenright" unicode=")" horiz-adv-x="201" 
d="M7 -93q21 48 37.5 92t27 88.5t16 93t5.5 105.5v56q0 57 -5.5 105.5t-16.5 92t-27 85.5t-37 86h55q14 -19 32.5 -53.5t35.5 -84t28.5 -114.5t11.5 -145q0 -82 -12 -148.5t-28.5 -117.5t-35 -86t-32.5 -55h-55v0z" />
    <glyph glyph-name="asterisk" unicode="*" horiz-adv-x="318" 
d="M53 440l31 42l56 46l-71 4l-44 14l18 57l43 -13l61 -41l-18 72v57h60v-57l-20 -72l62 41l44 13l18 -57l-44 -14l-72 -4l56 -46l32 -42l-49 -36l-31 42l-26 67l-27 -67l-31 -42z" />
    <glyph glyph-name="plus" unicode="+" horiz-adv-x="330" 
d="M132 274h-101v61h101v133h65v-133h104v-61h-104v-134h-65v134z" />
    <glyph glyph-name="comma" unicode="," horiz-adv-x="161" 
d="M32 -94l32 100l-25 6q-4 5 -7.5 13.5t-3.5 21.5q0 26 16 40t37 14t36.5 -14t15.5 -39q0 -20 -7 -36.5t-20 -37.5l-47 -80z" />
    <glyph glyph-name="hyphen" unicode="-" horiz-adv-x="206" 
d="M32 334h142v-73h-142v73z" />
    <glyph glyph-name="period" unicode="." horiz-adv-x="161" 
d="M80 -8q-21 0 -36.5 15t-15.5 40t15.5 39.5t36.5 14.5t37 -14.5t16 -39.5t-16 -40t-37 -15z" />
    <glyph glyph-name="slash" unicode="/" horiz-adv-x="251" 
d="M185 711h60l-181 -804h-60z" />
    <glyph glyph-name="zero" unicode="0" horiz-adv-x="364" 
d="M182 -9q-39 0 -68 19t-47.5 59.5t-27.5 104t-9 153.5q0 176 37 254.5t115 78.5q39 0 67.5 -18.5t47.5 -58.5t28 -102.5t9 -151.5q0 -91 -9 -155.5t-27.5 -105t-47.5 -59t-68 -18.5zM182 51q19 0 33 9t23 32.5t13.5 65.5t4.5 108v136q0 57 -4.5 94.5t-13.5 59.5t-23 31
t-34 9q-19 0 -33 -9t-23 -31.5t-13 -60.5t-4 -96v-135q0 -66 4.5 -107.5t13.5 -65t23 -32t33 -8.5z" />
    <glyph glyph-name="one" unicode="1" horiz-adv-x="251" 
d="M33 53h60v493h-60v37l87 68h47v-598h58v-53h-192v53z" />
    <glyph glyph-name="two" unicode="2" horiz-adv-x="299" 
d="M21 63l4 22q6 39 15 70t22 56.5t28.5 47.5t34.5 45q18 22 31 40.5t21 35.5t11.5 35.5t3.5 40.5v34q0 32 -4 52.5t-12 32t-20 16t-29 4.5q-27 0 -48 -7.5t-39 -16.5l-15 56q20 12 46.5 22.5t65.5 10.5q69 0 101.5 -44t32.5 -133q0 -44 -7 -76t-20 -57.5t-31.5 -48.5
t-41.5 -49q-17 -19 -31 -38t-24 -40t-17 -46.5t-11 -57.5l-2 -15l67 11h115v-66h-247v63z" />
    <glyph glyph-name="three" unicode="3" horiz-adv-x="305" 
d="M130 -9q-38 0 -65 10t-46 21l13 54q20 -11 41 -18t50 -7q42 0 59.5 26.5t17.5 89.5v33q0 35 -4.5 57.5t-14.5 35t-24.5 17.5t-35.5 5h-37v58h32q21 0 35.5 4.5t23.5 16t13 31t4 48.5v27q0 57 -16.5 77t-53.5 20q-25 0 -43 -6.5t-39 -15.5l-12 54q17 11 42.5 21t62.5 10
q69 0 102 -44t33 -122q0 -69 -20.5 -102t-62.5 -45q23 -6 40.5 -17.5t29.5 -32t18 -51t6 -72.5q0 -92 -39 -137.5t-110 -45.5z" />
    <glyph glyph-name="four" unicode="4" horiz-adv-x="360" 
d="M208 155h-186v50l169 446h91v-435h51v-61h-51v-155h-74v155zM208 214v206l12 189l-37 -142l-93 -253h118z" />
    <glyph glyph-name="five" unicode="5" horiz-adv-x="305" 
d="M129 -9q-41 0 -68 10.5t-44 23.5l13 55q19 -10 40.5 -18.5t50.5 -8.5q22 0 37.5 6t25 21t14 41t4.5 66v33q0 39 -4 63t-11.5 38t-18.5 19t-25 5q-23 0 -35.5 -10.5t-22.5 -30.5l-49 12l10 335h213v-67h-154l-4 -150l-15 -74q14 20 31.5 30.5t46.5 10.5q23 0 44 -10
t37 -33.5t25.5 -61t9.5 -92.5q0 -109 -38.5 -161t-112.5 -52z" />
    <glyph glyph-name="six" unicode="6" horiz-adv-x="352" 
d="M155 403q8 3 19 6t26 3q57 0 91.5 -50t34.5 -152q0 -116 -38 -168t-106 -52q-34 0 -62 15t-48 47t-31 83t-11 124q0 77 15.5 139t39.5 110.5t52 83.5t53 59h92q-30 -28 -58.5 -63t-52 -73t-40 -78t-22.5 -79zM106 228q0 -52 5 -87t14.5 -55.5t24 -29t32.5 -8.5
q33 0 50 29t17 103v47q0 71 -17 99.5t-55 28.5q-23 0 -39.5 -8.5t-31.5 -25.5v-93z" />
    <glyph glyph-name="seven" unicode="7" horiz-adv-x="303" 
d="M191 528l32 62l-59 -6h-147v67h263v-76l-149 -575h-75z" />
    <glyph glyph-name="eight" unicode="8" horiz-adv-x="347" 
d="M124 326q-38 26 -60 66t-22 106q0 78 35.5 120.5t96.5 42.5q63 0 96.5 -41.5t33.5 -112.5q0 -44 -6 -70.5t-19 -49.5l-64 -33q23 -13 42 -28t33.5 -36.5t22.5 -50.5t8 -69q0 -86 -38 -133t-110 -47t-109.5 45t-37.5 126q0 55 11 86t25 51l62 28v0zM190 370q26 22 35.5 47
t9.5 71v21q0 46 -14 69t-46 23t-45 -24t-13 -66v-21q0 -24 3.5 -41.5t12 -31.5t22.5 -25t35 -22zM148 310q-29 -22 -39.5 -50t-10.5 -76v-28q0 -109 74 -109q38 0 55 27.5t17 81.5v29q0 21 -4.5 37.5t-16 31t-30 28t-45.5 28.5z" />
    <glyph glyph-name="nine" unicode="9" horiz-adv-x="352" 
d="M197 244q-17 -10 -43 -10q-56 0 -92 51t-36 156q0 114 39 166.5t107 52.5q33 0 60.5 -14t47.5 -46t31 -83.5t11 -125.5q0 -75 -15 -134.5t-39 -107t-53 -84t-56 -65.5h-92q33 33 62.5 68.5t52.5 72.5t39 74.5t22 74.5zM246 422q0 52 -4.5 86t-14 54t-23.5 28t-32 8
q-35 0 -52 -27t-17 -102v-49q0 -72 17 -101t55 -29q23 0 39.5 10t31.5 27v95z" />
    <glyph glyph-name="colon" unicode=":" horiz-adv-x="170" 
d="M85 284q-21 0 -37 15t-16 39q0 25 16 40t37 15t37 -15t16 -40q0 -24 -16 -39t-37 -15zM85 -8q-21 0 -37 15.5t-16 39.5q0 25 16 39.5t37 14.5t37 -14.5t16 -39.5q0 -24 -16 -39.5t-37 -15.5z" />
    <glyph glyph-name="semicolon" unicode=";" horiz-adv-x="170" 
d="M85 284q-21 0 -37 15t-16 39q0 25 16 40t37 15t37 -15t16 -40q0 -24 -16 -39t-37 -15zM37 -94l32 100l-25 6q-4 5 -7.5 13.5t-3.5 21.5q0 26 16 40t37 14t36.5 -14t15.5 -39q0 -20 -7 -36.5t-20 -37.5l-47 -80z" />
    <glyph glyph-name="less" unicode="&#x3c;" horiz-adv-x="263" 
d="M25 259v64l210 143v-79l-120 -77l-52 -19l52 -19l120 -79v-75z" />
    <glyph glyph-name="equal" unicode="=" horiz-adv-x="316" 
d="M31 395h254v-61h-254v61zM31 266h254v-62h-254v62z" />
    <glyph glyph-name="greater" unicode="&#x3e;" horiz-adv-x="262" 
d="M29 198l119 77l53 19l-53 19l-119 79v75l209 -141v-64l-209 -144v80z" />
    <glyph glyph-name="question" unicode="?" horiz-adv-x="279" 
d="M77 312q-2 29 2.5 40.5t24.5 20.5q21 9 34 17t20.5 21t10 33t2.5 54v31q0 28 -4 45.5t-12 27.5t-20 13.5t-28 3.5q-23 0 -41.5 -5.5t-40.5 -14.5l-12 55q17 11 43 21t60 10q62 0 98 -38.5t36 -127.5q0 -48 -6.5 -80t-20 -53.5t-34.5 -35t-50 -24.5v-157h-50zM113 -8
q-20 0 -36 15.5t-16 39.5t16 39.5t36 15.5q21 0 37 -15.5t16 -39.5t-16 -39.5t-37 -15.5z" />
    <glyph glyph-name="at" unicode="@" horiz-adv-x="529" 
d="M320 384q4 42 -4.5 58t-40.5 16q-20 0 -42.5 -4.5t-44.5 -11.5l-6 54q25 11 49.5 17.5t53.5 6.5q56 0 82 -37t18 -132l-24 -268q-2 -17 2.5 -22.5t14.5 -5.5h4q30 0 50.5 52t23.5 175v50q0 62 -9.5 113t-31.5 88t-57.5 57t-86.5 20q-196 0 -196 -331v-54
q0 -161 46.5 -244.5t149.5 -83.5q42 0 73 11.5t65 28.5l17 -34q-25 -18 -64 -33t-88 -15q-59 0 -105 22.5t-77.5 71t-48 124t-16.5 180.5q0 208 64 303.5t181 95.5q61 0 104.5 -24.5t71.5 -69.5t41.5 -107.5t13.5 -139.5q0 -157 -34.5 -229.5t-104.5 -72.5q-18 0 -29 2.5
t-17 4.5l-19 43l-31 -43q-10 -3 -22.5 -6.5t-26.5 -3.5q-36 0 -61.5 27t-25.5 92q0 47 8.5 79.5t25.5 53.5t43 32t61 15l44 4zM311 270l-40 -5q-35 -4 -50.5 -21.5t-18.5 -64.5l-2 -53q-2 -38 6.5 -54t34.5 -16q19 0 32 7.5t22 17.5z" />
    <glyph glyph-name="A" unicode="A" horiz-adv-x="369" 
d="M87 0h-69l126 652h84l124 -652h-79l-23 126h-139zM198 412l-15 187l-17 -187l-45 -229h119z" />
    <glyph glyph-name="B" unicode="B" horiz-adv-x="368" 
d="M51 651h129q32 0 59 -8t47 -27.5t31.5 -52.5t11.5 -82q0 -36 -6.5 -61t-17.5 -41t-26.5 -25t-32.5 -15q18 -5 35 -15.5t30 -29t21 -46.5t8 -68q0 -51 -11 -85.5t-31.5 -55.5t-48.5 -30t-62 -9h-136v651zM181 365q38 0 54 19.5t16 70.5v40q0 55 -17.5 73t-59.5 18h-47
v-221h54zM182 62q42 0 60 21.5t18 80.5v46q0 56 -17.5 77t-59.5 21h-56v-246h55z" />
    <glyph glyph-name="C" unicode="C" horiz-adv-x="322" 
d="M204 -9q-94 0 -133.5 82t-39.5 254q0 171 40.5 252t128.5 81q34 0 57 -8.5t41 -20.5l-14 -60q-23 10 -39.5 15t-39.5 5q-20 0 -37 -8t-29.5 -29.5t-19.5 -59.5t-7 -99v-131q0 -65 6.5 -106t18.5 -63.5t29 -30.5t38 -8q28 0 46.5 7t38.5 18l18 -58q-17 -13 -42.5 -22.5
t-60.5 -9.5z" />
    <glyph glyph-name="D" unicode="D" horiz-adv-x="388" 
d="M51 651h122q45 0 79 -16t57.5 -53.5t35.5 -99.5t12 -154q0 -99 -12.5 -162.5t-36.5 -100.5t-59 -51t-80 -14h-118v651zM167 63q27 0 47.5 7.5t34.5 29.5t21 61.5t7 103.5v132q0 56 -7 92t-20.5 57t-34.5 29.5t-48 8.5h-39v-521h39z" />
    <glyph glyph-name="E" unicode="E" horiz-adv-x="321" 
d="M51 651h231v-67h-155v-220h134v-64h-134v-234h165v-66h-241v651z" />
    <glyph glyph-name="F" unicode="F" horiz-adv-x="310" 
d="M51 651h233v-67h-156v-238h134v-65h-134v-281h-77v651z" />
    <glyph glyph-name="G" unicode="G" horiz-adv-x="373" 
d="M253 1q-8 -4 -22 -7t-31 -3q-48 0 -80.5 20.5t-52 62t-28 104.5t-8.5 149q0 174 42 253.5t135 79.5q38 0 65 -8t44 -19l-14 -60q-20 7 -39.5 13.5t-51.5 6.5q-22 0 -40.5 -8.5t-32 -30.5t-21 -60t-7.5 -96v-135q0 -66 6 -107t18 -64.5t30 -31.5t41 -8q20 0 33 4.5
t24 12.5v204h-63v62h136v-340h-28l-21 55z" />
    <glyph glyph-name="H" unicode="H" horiz-adv-x="399" 
d="M128 301v-301h-77v651h77v-286h142v286h78v-651h-78v301h-142z" />
    <glyph glyph-name="I" unicode="I" horiz-adv-x="184" 
d="M53 651h78v-651h-78v651z" />
    <glyph glyph-name="J" unicode="J" horiz-adv-x="237" 
d="M86 -9q-24 0 -42.5 5.5t-29.5 13.5l8 61q11 -5 22.5 -8.5t25.5 -3.5q22 0 32.5 14.5t10.5 52.5v525h77v-491q0 -93 -25.5 -131t-78.5 -38z" />
    <glyph glyph-name="K" unicode="K" horiz-adv-x="365" 
d="M269 651h78l-148 -309l48 -46l103 -296h-81l-106 311l-34 -69v-242h-78v651h78v-204l-17 -138z" />
    <glyph glyph-name="L" unicode="L" horiz-adv-x="303" 
d="M51 651h77v-585h155v-66h-232v651z" />
    <glyph glyph-name="M" unicode="M" horiz-adv-x="485" 
d="M51 651h97l71 -400l19 -224l20 224l76 400h100v-651h-74v275l15 342l-34 -258l-68 -359h-75l-64 353l-34 264l16 -342v-275h-65v651z" />
    <glyph glyph-name="N" unicode="N" horiz-adv-x="400" 
d="M51 651h77l125 -374l48 -203l-19 237v340h67v-651h-75l-131 389l-43 191l17 -225v-355h-66v651z" />
    <glyph glyph-name="O" unicode="O" horiz-adv-x="392" 
d="M195 -9q-85 0 -124.5 81t-39.5 255q0 172 40 252.5t125 80.5t125 -79.5t40 -251.5q0 -91 -9.5 -155.5t-30 -105t-51.5 -59t-75 -18.5zM196 52q20 0 35.5 9t26 33t16.5 65.5t6 107.5v134q0 57 -5.5 94t-16.5 59t-26.5 31t-35.5 9t-35.5 -9.5t-26.5 -32t-17 -60.5t-6 -95
v-133q0 -66 6 -107t17 -64.5t27 -32t35 -8.5z" />
    <glyph glyph-name="P" unicode="P" horiz-adv-x="360" 
d="M51 651h129q78 0 117 -51t39 -159q0 -107 -38.5 -157.5t-116.5 -50.5h-53v-233h-77v651zM177 293q42 0 60 25.5t18 91.5v62q0 65 -18 89t-62 24h-47v-292h49z" />
    <glyph glyph-name="Q" unicode="Q" horiz-adv-x="392" 
d="M337 -111l-85 -18l-64 121q-82 3 -119.5 84.5t-37.5 250.5q0 172 40 252.5t125 80.5t125 -80t40 -251q0 -63 -4.5 -111.5t-13 -84.5t-21.5 -61.5t-30 -42.5l-51 -9zM196 51q20 0 35.5 9t26 33t16.5 66t6 108v134q0 57 -5.5 94t-16.5 59t-26.5 31t-35.5 9t-35.5 -9.5
t-26.5 -32t-17 -60.5t-6 -95v-133q0 -66 6 -107.5t17 -65t27 -32t35 -8.5z" />
    <glyph glyph-name="R" unicode="R" horiz-adv-x="372" 
d="M272 240l74 -240h-79l-79 268h-60v-268h-77v651h132q74 0 114 -46.5t40 -148.5q0 -74 -23 -120.5t-83 -57.5zM178 323q42 0 60 23t18 83v54q0 58 -18.5 79.5t-60.5 21.5h-50v-261h51z" />
    <glyph glyph-name="S" unicode="S" horiz-adv-x="318" 
d="M144 -9q-45 0 -74 11t-46 22l13 58q22 -11 44 -19t49 -8q22 0 38 5t26 17t14.5 32.5t4.5 52.5q0 30 -3 51t-12 36t-24 27t-39 25q-27 15 -47 31.5t-33 38t-19.5 51t-6.5 71.5q0 90 36.5 128.5t101.5 38.5q33 0 57.5 -9t42.5 -20l-14 -60q-22 10 -40 15.5t-45 5.5
q-34 0 -50 -20t-16 -76q0 -26 2.5 -43.5t10.5 -31t23 -24.5t39 -25q27 -14 47.5 -30.5t35 -40t21.5 -55.5t7 -77q0 -89 -34.5 -133.5t-109.5 -44.5z" />
    <glyph glyph-name="T" unicode="T" horiz-adv-x="312" 
d="M16 583v68h280v-68h-102v-583h-77v583h-101z" />
    <glyph glyph-name="U" unicode="U" horiz-adv-x="393" 
d="M264 651h78v-651h-50l-22 54l-28 -49q-9 -5 -26 -9.5t-39 -4.5q-31 0 -55.5 10.5t-41 35t-25.5 64.5t-9 99v451h79v-497q0 -59 16.5 -80.5t51.5 -21.5q25 0 40 8t31 21v570z" />
    <glyph glyph-name="V" unicode="V" horiz-adv-x="368" 
d="M18 651h80l72 -396l17 -216l17 216l74 396h72l-125 -651h-82z" />
    <glyph glyph-name="W" unicode="W" horiz-adv-x="517" 
d="M22 651h77l43 -357l16 -257l17 255l47 359h80l46 -359l16 -255l16 257l46 357h69l-93 -651h-79l-47 348l-16 258l-17 -258l-50 -348h-80z" />
    <glyph glyph-name="X" unicode="X" horiz-adv-x="347" 
d="M123 336l-103 315h80l56 -181l22 -121l18 121l55 181h74l-102 -314l110 -337h-81l-62 197l-22 120l-18 -120l-61 -197h-75z" />
    <glyph glyph-name="Y" unicode="Y" horiz-adv-x="348" 
d="M139 236l-125 415h81l69 -257l16 -141l14 141l67 257h73l-117 -412v-239h-78v236z" />
    <glyph glyph-name="Z" unicode="Z" horiz-adv-x="318" 
d="M27 73l171 470l34 49l-61 -6h-137v65h254v-79l-170 -461l-38 -56l65 9h145v-64h-263v73z" />
    <glyph glyph-name="bracketleft" unicode="[" horiz-adv-x="189" 
d="M38 711h129v-56h-58v-694h58v-56h-129v806z" />
    <glyph glyph-name="backslash" unicode="\" horiz-adv-x="250" 
d="M6 711h60l181 -804h-60z" />
    <glyph glyph-name="bracketright" unicode="]" horiz-adv-x="189" 
d="M21 -39h59v694h-59v56h129v-806h-129v56z" />
    <glyph glyph-name="asciicircum" unicode="^" horiz-adv-x="317" 
d="M122 688h65l87 -265h-68l-39 132l-14 97l-13 -97l-42 -132h-61z" />
    <glyph glyph-name="underscore" unicode="_" horiz-adv-x="193" 
d="M-1 -109h194v-53h-194v53z" />
    <glyph glyph-name="quoteleft" unicode="`" horiz-adv-x="159" 
d="M78 493q-21 0 -35 14t-14 37q0 20 7 36t18 35l45 77l26 -11l-31 -95l23 -6q5 -5 9 -13.5t4 -22.5q0 -23 -16 -37t-36 -14z" />
    <glyph glyph-name="a" unicode="a" horiz-adv-x="320" 
d="M200 389q0 41 -11 59t-43 18q-24 0 -47.5 -6t-44.5 -14l-13 58q23 12 50.5 20.5t62.5 8.5q29 0 51 -8.5t37 -28.5t22.5 -53.5t7.5 -83.5v-285q0 -17 5.5 -22t16.5 -5h13l1 -41q-7 -6 -19 -10t-26 -4q-10 0 -18 2t-14 4l-24 46l-27 -44q-8 -4 -19.5 -6.5t-25.5 -2.5
q-22 0 -42.5 7.5t-35.5 25t-24 46t-9 71.5q0 44 8.5 73.5t25 49t41 29.5t57.5 14l44 5v77zM200 265l-41 -5q-35 -4 -50 -22t-15 -67v-54q0 -42 13.5 -57t39.5 -15q20 0 32.5 7.5t20.5 17.5v195z" />
    <glyph glyph-name="b" unicode="b" horiz-adv-x="338" 
d="M79 -2h-35v704h72v-220q14 22 34.5 36.5t46.5 14.5q27 0 48 -13t35.5 -44t22 -83.5t7.5 -131.5t-8.5 -131t-24 -83t-38.5 -43.5t-53 -12.5q-19 0 -32.5 4t-20.5 8l-32 45zM116 65q11 -10 24 -16t29 -6q17 0 30 7.5t21.5 25.5t12.5 48t4 76v121q0 46 -4 75t-12 45t-19 22
t-26 6q-20 0 -34.5 -9t-25.5 -20v-375z" />
    <glyph glyph-name="c" unicode="c" horiz-adv-x="267" 
d="M165 -9q-34 0 -60.5 14t-43.5 46t-26 84t-9 127t9 127t27 84t44.5 46t60.5 14q27 0 47.5 -7t34.5 -16l-11 -57q-17 7 -32.5 11.5t-34.5 4.5q-18 0 -31 -6.5t-22 -23.5t-13 -46t-4 -74v-110q0 -47 4.5 -77.5t13 -48.5t21.5 -25t31 -7q19 0 35.5 6t33.5 14l12 -53
q-14 -10 -36 -18.5t-51 -8.5z" />
    <glyph glyph-name="d" unicode="d" horiz-adv-x="338" 
d="M221 702h73v-702h-46l-22 49l-30 -47q-7 -4 -18 -7.5t-26 -3.5q-31 0 -54 13.5t-39 45.5t-24 84.5t-8 129.5q0 80 9.5 132t25.5 82.5t37.5 42.5t46.5 12t43 -12t32 -30v211zM221 445q-11 8 -24.5 16t-33.5 8q-15 0 -27 -5.5t-19.5 -21.5t-11.5 -45t-4 -75v-123
q0 -45 4 -75.5t12 -48.5t20 -25.5t27 -7.5q17 0 30 8.5t27 22.5v372z" />
    <glyph glyph-name="e" unicode="e" horiz-adv-x="319" 
d="M100 211q0 -48 4.5 -78.5t14.5 -48.5t25.5 -25t36.5 -7q25 0 47 7t43 17l10 -55q-16 -11 -42.5 -20.5t-61.5 -9.5q-38 0 -66.5 14t-47 46t-28 83.5t-9.5 126.5q0 76 9 128t27 84t44 46t59 14q67 0 97.5 -58t30.5 -166v-69h-193v-29zM222 293v46q0 76 -13.5 105t-44.5 29
q-17 0 -29 -7t-20 -26t-11.5 -50.5t-3.5 -81.5v-15h122z" />
    <glyph glyph-name="f" unicode="f" horiz-adv-x="211" 
d="M14 467v57h41v74q0 63 25 88.5t66 25.5q20 0 36.5 -5t27.5 -13l-4 -45h-51q-15 0 -21.5 -7t-6.5 -26v-92h73v-57h-73v-467h-72v467h-41z" />
    <glyph glyph-name="g" unicode="g" horiz-adv-x="320" 
d="M314 539v-73h-77l40 -32q3 -13 5 -28t2 -34q0 -49 -10 -81.5t-27.5 -51.5t-40.5 -26.5t-49 -7.5q-28 0 -51 9q-8 -8 -13 -20t-5 -26q0 -17 9 -27.5t33 -10.5h48q60 0 95 -31.5t35 -112.5q0 -44 -11.5 -73.5t-32 -47.5t-47.5 -26t-58 -8q-61 0 -100.5 32.5t-39.5 103.5
q0 31 8 50t14 29l43 20q-23 7 -37.5 26.5t-14.5 51.5q0 23 6 38.5t12 23.5l40 23l-39 28q-11 20 -17 46.5t-6 65.5q0 48 11.5 79.5t30 50.5t41.5 26.5t46 7.5q22 0 42 -6.5t38 -21.5zM157 257q34 0 45.5 20t11.5 68v37q0 45 -11 68.5t-46 23.5t-47 -23t-12 -68v-37
q0 -48 12 -68.5t47 -20.5zM109 60q-13 -14 -20 -33t-7 -51q0 -50 19 -70t58 -20q42 0 60.5 20.5t18.5 58.5v33q0 34 -14.5 48t-46.5 14h-68v0z" />
    <glyph glyph-name="h" unicode="h" horiz-adv-x="339" 
d="M116 0h-72v702h72v-231l33 47q11 6 25 10.5t31 4.5q20 0 36.5 -6.5t29.5 -22t20 -41t7 -63.5v-400h-72v422q0 26 -11.5 36.5t-32.5 10.5q-20 0 -35 -7t-31 -18v-444z" />
    <glyph glyph-name="i" unicode="i" horiz-adv-x="164" 
d="M82 604q-19 0 -33 13.5t-14 33.5q0 21 14 34t33 13t33 -13t14 -34q0 -20 -14 -33.5t-33 -13.5zM46 524h72v-524h-72v524z" />
    <glyph glyph-name="j" unicode="j" horiz-adv-x="162" 
d="M81 604q-19 0 -32.5 13.5t-13.5 33.5q0 21 13.5 34t32.5 13t33 -13t14 -34q0 -20 -14 -33.5t-33 -13.5zM34 -167q-20 0 -35 5.5t-23 11.5l3 41h38q16 0 22 7.5t6 24.5v601h72v-584q0 -59 -23 -83t-60 -24z" />
    <glyph glyph-name="k" unicode="k" horiz-adv-x="311" 
d="M116 0h-72v702h72v-311l-15 -142l122 275h73l-111 -237l44 -53l74 -234h-75l-78 255l-34 -68v-187z" />
    <glyph glyph-name="l" unicode="l" horiz-adv-x="166" 
d="M47 702h72v-702h-72v702z" />
    <glyph glyph-name="m" unicode="m" horiz-adv-x="508" 
d="M319 518q10 6 24.5 10.5t31.5 4.5q19 0 35.5 -6.5t29 -22t19.5 -41t7 -63.5v-400h-72v422q0 26 -11 36.5t-31 10.5q-19 0 -32.5 -6.5t-27.5 -17.5v-445h-72v422q0 26 -11 36.5t-31 10.5q-19 0 -33.5 -6.5t-28.5 -17.5v-445h-72v524h44l25 -54l31 47q11 6 26 11t34 5
q16 0 29.5 -4t24.5 -11l27 -48z" />
    <glyph glyph-name="n" unicode="n" horiz-adv-x="339" 
d="M147 517q10 6 25 11t33 5q20 0 36.5 -6.5t29.5 -22t20 -41t7 -63.5v-400h-72v422q0 26 -11.5 36.5t-32.5 10.5q-20 0 -35 -7t-31 -18v-444h-72v524h44l25 -54z" />
    <glyph glyph-name="o" unicode="o" horiz-adv-x="329" 
d="M165 -9q-32 0 -57.5 14t-43.5 46t-28 83.5t-10 126.5t10 127t28 84.5t43.5 46.5t57.5 14t57.5 -14.5t43.5 -46.5t27.5 -83t9.5 -125q0 -76 -9.5 -128t-27.5 -84t-43.5 -46.5t-57.5 -14.5zM165 50q15 0 26.5 7t20 25t12.5 48t4 76v112q0 46 -4 75.5t-12 46.5t-20 23.5
t-27 6.5q-16 0 -28 -7t-20 -24t-12 -46t-4 -73v-113q0 -47 4 -77.5t12.5 -48t20.5 -24.5t27 -7z" />
    <glyph glyph-name="p" unicode="p" horiz-adv-x="338" 
d="M146 520q9 5 21 9t29 4q27 0 48 -13t35.5 -44t22.5 -83t8 -130q0 -76 -8 -126.5t-23 -79.5t-37 -41t-51 -12q-25 0 -43.5 10.5t-31.5 24.5v-196h-72v681h45l24 -54zM116 79q11 -8 24.5 -16t33.5 -8q15 0 26.5 6.5t19.5 23t12 44.5t4 71v123q0 44 -3.5 72.5t-11 45t-19 23
t-26.5 6.5q-18 0 -32 -7t-28 -19v-365v0z" />
    <glyph glyph-name="q" unicode="q" horiz-adv-x="338" 
d="M223 42q-13 -14 -31.5 -26t-44.5 -12q-27 0 -49 12t-37.5 41.5t-24 79.5t-8.5 127q0 78 8.5 130t24.5 83t38 43.5t49 12.5q17 0 29.5 -3.5t22.5 -8.5l38 -56l22 59h35v-681h-72v199v0zM223 445q-14 11 -28.5 18t-32.5 7q-14 0 -25.5 -6t-19 -22.5t-11.5 -45.5t-4 -74
v-121q0 -43 4 -71.5t11.5 -45t19 -23t27.5 -6.5q20 0 34.5 8.5t24.5 16.5v365v0z" />
    <glyph glyph-name="r" unicode="r" horiz-adv-x="243" 
d="M144 517q24 13 50 13q15 0 24.5 -2.5t14.5 -5.5l-10 -67q-8 2 -15.5 3.5t-19.5 1.5q-20 0 -37 -7t-35 -22v-431h-72v524h42l26 -64z" />
    <glyph glyph-name="s" unicode="s" horiz-adv-x="267" 
d="M119 -9q-33 0 -58 8t-41 18l12 54q17 -8 36 -14.5t45 -6.5q29 0 44.5 17t15.5 67q0 23 -2.5 38t-10 26.5t-21.5 21.5t-37 23q-39 22 -58.5 54.5t-19.5 95.5q0 38 8.5 65t23.5 43.5t36.5 24t47.5 7.5q32 0 53 -7.5t35 -17.5l-12 -56q-14 6 -31.5 11.5t-40.5 5.5
q-28 0 -40.5 -14.5t-12.5 -58.5q0 -21 3 -34.5t10 -23.5t19.5 -18.5t31.5 -19.5q24 -13 40.5 -27.5t27 -34t15.5 -44t5 -56.5q0 -75 -32 -111t-92 -36z" />
    <glyph glyph-name="t" unicode="t" horiz-adv-x="220" 
d="M138 -9q-41 0 -62.5 25t-21.5 88v363h-41v57h44l35 129h33v-129h74v-57h-74v-382q0 -23 6.5 -30t23.5 -7h49l3 -40q-12 -6 -30 -11.5t-39 -5.5z" />
    <glyph glyph-name="u" unicode="u" horiz-adv-x="339" 
d="M223 524h72v-524h-44l-26 53l-32 -47q-11 -6 -25.5 -10.5t-32.5 -4.5q-19 0 -36.5 6.5t-30 22t-20 41t-7.5 63.5v400h72v-422q0 -27 11.5 -38.5t33.5 -11.5t36.5 6.5t28.5 17.5v448z" />
    <glyph glyph-name="v" unicode="v" horiz-adv-x="304" 
d="M11 524h74l56 -314l14 -179l13 179l57 314h68l-103 -524h-75z" />
    <glyph glyph-name="w" unicode="w" horiz-adv-x="448" 
d="M13 524h72l41 -314l8 -172l17 212l39 274h76l37 -274l15 -212l9 172l43 314h65l-81 -524h-73l-40 267l-15 218l-16 -218l-43 -267h-74z" />
    <glyph glyph-name="x" unicode="x" horiz-adv-x="298" 
d="M104 268l-88 256h74l43 -134l19 -108l17 108l39 134h71l-86 -255l91 -269h-74l-45 143l-21 108l-16 -108l-44 -143h-71z" />
    <glyph glyph-name="y" unicode="y" horiz-adv-x="305" 
d="M118 10l-107 514h74l56 -301l14 -182l14 182l56 301h68l-139 -681h-70z" />
    <glyph glyph-name="z" unicode="z" horiz-adv-x="264" 
d="M20 64l137 363l29 40l-60 -6h-98v63h214v-70l-135 -359l-32 -43l60 7h108v-59h-223v64z" />
    <glyph glyph-name="braceleft" unicode="{" horiz-adv-x="207" 
d="M140 -100q-16 0 -32 5t-28.5 16.5t-20 30.5t-7.5 46q0 31 3.5 63t8 61.5t8 54.5t3.5 43q0 33 -14 47.5t-46 16.5v57q32 2 46 16.5t14 48.5q0 18 -3.5 42t-8 51.5t-8 57.5t-3.5 58t8.5 47t21.5 31t28.5 17.5t30.5 5.5q16 0 28.5 -3t18.5 -8l-3 -48h-27q-21 0 -29 -13
t-4 -49l17 -164q7 -55 -12 -82.5t-66 -35.5q47 -9 66.5 -36.5t12.5 -84.5l-18 -176q-4 -34 4 -47t29 -13h27l3 -44q-7 -4 -19 -8t-29 -4z" />
    <glyph glyph-name="bar" unicode="|" horiz-adv-x="129" 
d="M36 711h57v-804h-57v804z" />
    <glyph glyph-name="braceright" unicode="}" horiz-adv-x="206" 
d="M66 -100q-16 0 -28.5 4t-19.5 8l3 44h26q22 0 30 12t4 47l-18 177q-6 56 13 84t65 37q-46 8 -65.5 34.5t-13.5 83.5l18 162q5 37 -3 50.5t-30 13.5h-26l-3 48q5 5 18 8t28 3t31 -5t28.5 -17t21 -31t8.5 -47q0 -29 -3.5 -58.5t-7.5 -57.5t-7.5 -52t-3.5 -42q0 -33 14 -48
t45 -17v-57q-31 -2 -45 -16t-14 -47q0 -18 3.5 -43.5t7.5 -55t7.5 -61.5t3.5 -62q0 -28 -7.5 -47t-19.5 -30.5t-27.5 -16.5t-32.5 -5z" />
    <glyph glyph-name="asciitilde" unicode="~" horiz-adv-x="259" 
d="M174 268q-17 0 -28 6.5t-22 19.5l-19 23q-8 9 -12.5 12.5t-10.5 3.5q-7 0 -10.5 -8t-3.5 -28v-22h-42q0 69 17 95.5t43 26.5q15 0 26.5 -7t22.5 -21l19 -22q13 -16 22 -16q8 0 11.5 8t3.5 28v22h43q0 -69 -17.5 -95t-42.5 -26z" />
    <glyph glyph-name="exclamdown" unicode="&#xa1;" horiz-adv-x="176" 
d="M89 422q-21 0 -37 15.5t-16 40.5q0 24 16 39t37 15q20 0 35.5 -15t15.5 -39q0 -25 -15.5 -40.5t-35.5 -15.5zM49 149l22 206h35l22 -206v-299h-79v299z" />
    <glyph glyph-name="cent" unicode="&#xa2;" horiz-adv-x="273" 
d="M151 53q10 -2 18 -2q20 0 37 6.5t35 15.5l11 -52q-14 -11 -35.5 -20.5t-53.5 -9.5q-7 0 -13 0.5t-13 1.5l-27 -123l-43 10l29 131q-34 25 -52 85t-18 166q0 75 9 127t27 84t44 46t60 14q12 0 22.5 -2t20.5 -5l26 119l45 -9l-129 -583v0zM196 466q-12 3 -26 3
q-18 0 -31 -6.5t-22 -23.5t-13 -46t-4 -74v-110q0 -84 13 -119l83 376v0z" />
    <glyph glyph-name="sterling" unicode="&#xa3;" horiz-adv-x="291" 
d="M159 294q6 -30 6 -64q0 -48 -10 -82.5t-28 -58.5l-49 -36l76 13h128v-66h-253v57q15 15 28 30t22 34t14 43.5t5 58.5q0 19 -2.5 36.5t-6.5 34.5h-64v61h45q-11 32 -19.5 67.5t-8.5 80.5q0 73 33 115t101 42q38 0 60 -7.5t38 -18.5l-11 -57q-18 8 -34.5 13t-41.5 5
q-35 0 -51 -20t-16 -73v-31q0 -32 7.5 -59.5t15.5 -56.5h96v-61h-80v0z" />
    <glyph glyph-name="fraction" unicode="&#xa4;" horiz-adv-x="241" 
d="M217 651h53l-247 -651h-52z" />
    <glyph glyph-name="yen" unicode="&#xa5;" horiz-adv-x="355" 
d="M335 381v-61h-96l-18 -67h114v-61h-118v-192h-75v192h-122v61h117l-20 67h-97v61h79l-78 270h80l65 -248l16 -164l16 164l62 248h70l-74 -270h79z" />
    <glyph glyph-name="florin" unicode="&#xa6;" horiz-adv-x="248" 
d="M30 422v58h53l12 118q8 66 33.5 89.5t64.5 23.5q20 0 35.5 -5.5t26.5 -10.5l-8 -46h-44q-16 0 -23.5 -6.5t-9.5 -26.5l-14 -136h64v-58h-70l-51 -483q-4 -32 -11.5 -52.5t-19 -32.5t-25.5 -16.5t-30 -4.5q-19 0 -32 5t-22 10l8 47h28q14 0 20.5 5.5t9.5 25.5l52 496h-47z
" />
    <glyph glyph-name="section" unicode="&#xa7;" horiz-adv-x="291" 
d="M115 369q-36 22 -55 55t-19 92q0 76 33.5 110t86.5 34q30 0 50 -6.5t34 -16.5l-11 -54q-17 7 -32 11t-36 4q-29 0 -43.5 -17t-14.5 -60q0 -21 2.5 -35.5t10 -25t20 -19.5t31.5 -20q24 -14 42.5 -29t30.5 -34.5t18.5 -45t6.5 -58.5t-7 -57.5t-19 -41.5l-62 -29
q33 -26 49.5 -61t16.5 -90q0 -77 -34 -111t-91 -34q-30 0 -53.5 7.5t-38.5 18.5l9 50q17 -7 34.5 -13.5t42.5 -6.5q31 0 47 17t16 66q0 24 -2.5 40t-10 29t-21 23.5t-34.5 23.5q-24 14 -41.5 28t-28.5 32.5t-16.5 42t-5.5 54.5q0 29 8 56t20 42l67 29v0zM153 144
q25 11 38 32t13 67q0 22 -2.5 38t-9 28t-18 22.5t-29.5 20.5q-33 -14 -47 -34.5t-14 -65.5q0 -23 3 -38.5t10.5 -27t21 -21t34.5 -21.5z" />
    <glyph glyph-name="currency" unicode="&#xa8;" horiz-adv-x="329" 
d="M15 355v56h45q4 67 14.5 114t29.5 77t46.5 44t64.5 14q30 0 52 -8t39 -19l-13 -57q-19 8 -35.5 13t-38.5 5q-20 0 -35.5 -8t-26 -28.5t-16 -56t-6.5 -90.5h114v-56h-114v-67h114v-56h-114q2 -54 8 -89t16.5 -54.5t26 -27t35.5 -7.5q23 0 40.5 6.5t37.5 17.5l15 -55
q-17 -13 -41 -22.5t-57 -9.5q-38 0 -65.5 14t-46.5 43t-29 75t-14 109h-46v56h43v39v28h-43z" />
    <glyph glyph-name="quotesingle" unicode="&#xa9;" horiz-adv-x="144" 
d="M35 554v123h74v-123l-22 -138h-30z" />
    <glyph glyph-name="quotedblleft" unicode="&#xaa;" horiz-adv-x="294" 
d="M213 493q-20 0 -34.5 14t-14.5 37q0 20 7 36t18 35l45 77l26 -11l-30 -95l22 -6q5 -5 9 -13.5t4 -22.5q0 -23 -15.5 -37t-36.5 -14zM78 493q-21 0 -35 14t-14 37q0 20 7 36t18 35l45 77l26 -11l-31 -95l23 -6q5 -5 9 -13.5t4 -22.5q0 -23 -16 -37t-36 -14z" />
    <glyph glyph-name="guillemotleft" unicode="&#xab;" horiz-adv-x="307" 
d="M145 169v53l75 168h70l-71 -160l-27 -35l27 -32l71 -163h-70zM24 169v53l75 168h70l-71 -160l-26 -35l26 -32l71 -163h-70z" />
    <glyph glyph-name="guilsinglleft" unicode="&#xac;" horiz-adv-x="187" 
d="M24 169v53l75 168h70l-71 -160l-26 -35l26 -32l71 -163h-70z" />
    <glyph glyph-name="guilsinglright" unicode="&#xad;" horiz-adv-x="187" 
d="M89 161l26 34l-26 33l-72 162h70l75 -168v-53l-75 -169h-70z" />
    <glyph glyph-name="fi" unicode="&#xae;" horiz-adv-x="363" 
d="M280 606q-20 0 -34.5 14.5t-14.5 35.5t14.5 35t34.5 14q19 0 33.5 -14t14.5 -35t-14.5 -35.5t-33.5 -14.5zM14 467v57h41v74q0 63 25.5 88.5t63.5 25.5q17 0 31.5 -5t23.5 -10l-4 -48h-40q-15 0 -21.5 -7t-6.5 -26v-92h72v-57h-72v-467h-72v467h-41zM243 524h72v-524h-72
v524z" />
    <glyph glyph-name="fl" unicode="&#xaf;" horiz-adv-x="360" 
d="M14 467v57h41v74q0 63 25.5 88.5t63.5 25.5q17 0 33 -5t24 -10l-3 -48h-43q-15 0 -21.5 -7t-6.5 -26v-92h72v-57h-72v-467h-72v467h-41zM241 702h72v-702h-72v702z" />
    <glyph glyph-name="endash" unicode="&#xb1;" horiz-adv-x="270" 
d="M30 328h211v-62h-211v62z" />
    <glyph glyph-name="dagger" unicode="&#xb2;" horiz-adv-x="315" 
d="M118 131v190l24 95l-61 -20h-58v74h58l61 -22l-24 83v132h78v-132l-24 -83l62 22h57v-74h-57l-63 20l25 -95v-190l-23 -283h-31z" />
    <glyph glyph-name="daggerdbl" unicode="&#xb3;" horiz-adv-x="315" 
d="M119 -20l23 84l-62 -23h-57v74h57l62 -21l-24 94v136l25 92l-62 -20h-57v74h57l62 -23l-24 84v132h77v-132l-24 -84l63 23h57v-74h-57l-63 20l25 -92v-136l-25 -94l62 21h57v-74h-57l-62 23l24 -84v-132h-77v132z" />
    <glyph glyph-name="periodcentered" unicode="&#xb4;" horiz-adv-x="162" 
d="M81 259q-21 0 -36.5 15.5t-15.5 39.5q0 25 15.5 39.5t36.5 14.5t37 -14.5t16 -39.5q0 -24 -16 -39.5t-37 -15.5z" />
    <glyph glyph-name="paragraph" unicode="&#xb6;" horiz-adv-x="337" 
d="M148 342l-48 -13q-37 11 -57.5 48.5t-20.5 113.5q0 87 37.5 123.5t98.5 36.5h131v-751h-48v705h-45v-705h-48v442z" />
    <glyph glyph-name="bullet" unicode="&#xb7;" horiz-adv-x="230" 
d="M115 223q-18 0 -33.5 7.5t-27.5 21t-19 31.5t-7 40q0 23 7 41.5t19 32t27.5 21t33.5 7.5q37 0 62 -28.5t25 -73.5q0 -44 -25 -72t-62 -28z" />
    <glyph glyph-name="bullet" unicode="&#x2219;" horiz-adv-x="230" 
d="M115 223q-18 0 -33.5 7.5t-27.5 21t-19 31.5t-7 40q0 23 7 41.5t19 32t27.5 21t33.5 7.5q37 0 62 -28.5t25 -73.5q0 -44 -25 -72t-62 -28z" />
    <glyph glyph-name="quotesinglbase" unicode="&#xb8;" horiz-adv-x="159" 
d="M33 -89l31 95l-23 6q-4 5 -8 13.5t-4 22.5q0 23 15 37t36 14q20 0 35 -14t15 -37q0 -20 -7 -36t-19 -35l-44 -77z" />
    <glyph glyph-name="quotedblbase" unicode="&#xb9;" horiz-adv-x="294" 
d="M169 -89l30 95l-22 6q-5 5 -9 13.5t-4 22.5q0 23 15.5 37t35.5 14q21 0 35.5 -14t14.5 -37q0 -20 -7 -36t-18 -35l-45 -77zM33 -89l31 95l-23 6q-4 5 -8 13.5t-4 22.5q0 23 15 37t36 14q20 0 35 -14t15 -37q0 -20 -7 -36t-19 -35l-44 -77z" />
    <glyph glyph-name="quotedblright" unicode="&#xba;" horiz-adv-x="294" 
d="M169 497l30 95l-22 6q-5 5 -9 13t-4 22q0 24 15.5 38t35.5 14q21 0 35.5 -14t14.5 -37q0 -20 -7 -36t-18 -35l-45 -77zM33 497l31 95l-23 6q-4 5 -8 13t-4 22q0 24 15 38t36 14q20 0 35 -14t15 -37q0 -20 -7 -36t-19 -35l-44 -77z" />
    <glyph glyph-name="guillemotright" unicode="&#xbb;" horiz-adv-x="307" 
d="M209 161l27 34l-27 33l-71 162h70l75 -168v-53l-75 -169h-70zM89 161l26 34l-26 33l-72 162h70l75 -168v-53l-75 -169h-70z" />
    <glyph glyph-name="ellipsis" unicode="&#xbc;" horiz-adv-x="469" 
d="M388 -8q-21 0 -36.5 15.5t-15.5 39.5q0 25 15.5 39.5t36.5 14.5t37 -14.5t16 -39.5q0 -24 -16 -39.5t-37 -15.5zM235 -8q-22 0 -38 15.5t-16 39.5q0 25 16 39.5t38 14.5q20 0 36.5 -14.5t16.5 -39.5q0 -24 -16.5 -39.5t-36.5 -15.5zM80 -8q-21 0 -36.5 15.5t-15.5 39.5
q0 25 15.5 39.5t36.5 14.5t37 -14.5t16 -39.5q0 -24 -16 -39.5t-37 -15.5z" />
    <glyph glyph-name="perthousand" unicode="&#xbd;" horiz-adv-x="785" 
d="M126 287q-54 0 -80 48.5t-26 140.5q0 89 27 136.5t80 47.5t80.5 -47t27.5 -135q0 -92 -28 -141.5t-81 -49.5zM377 651h52l-265 -651h-53zM656 -10q-53 0 -79.5 48.5t-26.5 139.5q0 90 27.5 137.5t80.5 47.5t80 -46.5t27 -136.5q0 -91 -27.5 -140.5t-81.5 -49.5zM411 -10
q-52 0 -78.5 48.5t-26.5 139.5q0 90 27 137.5t80 47.5q54 0 81 -46.5t27 -136.5q0 -91 -28 -140.5t-82 -49.5zM127 337q10 0 18 4.5t13 16t8 31t3 50.5v67q0 32 -3 52t-8 31.5t-13 15.5t-18 4t-18 -4.5t-13 -16t-8 -31.5t-3 -52v-67q0 -31 3 -50.5t8 -30.5t13 -15.5t18 -4.5
zM657 39q10 0 18 4.5t13.5 16t8.5 31.5t3 51v66q0 32 -3 52.5t-8.5 32t-13.5 15.5t-18 4t-17.5 -4.5t-13 -16t-8.5 -32t-3 -52.5v-66q0 -31 3 -51t8.5 -31t13 -15.5t17.5 -4.5zM412 39q21 0 32.5 21t11.5 82v66q0 32 -3 52.5t-8.5 32t-13.5 15.5t-19 4q-10 0 -17.5 -4.5
t-13 -16t-8.5 -32t-3 -52.5v-66q0 -31 3 -51t8.5 -31t13 -15.5t17.5 -4.5z" />
    <glyph glyph-name="questiondown" unicode="&#xbf;" horiz-adv-x="279" 
d="M165 422q-21 0 -36.5 15.5t-15.5 39.5t15.5 39.5t37.5 15.5q20 0 36 -15.5t16 -39.5t-16.5 -39.5t-36.5 -15.5zM163 -160q-62 0 -98 38.5t-36 128.5q0 48 6.5 79.5t20 53t34.5 35t50 24.5v156h49l12 -142q3 -28 -2 -39.5t-24 -21.5q-21 -9 -34 -17t-20.5 -20.5t-10 -33
t-2.5 -54.5v-31q0 -28 4 -45.5t11.5 -27t20 -13t28.5 -3.5q23 0 41 5.5t40 14.5l13 -55q-17 -12 -43 -22t-60 -10z" />
    <glyph glyph-name="grave" unicode="&#xc1;" horiz-adv-x="505" 
d="M161 726h82l33 -158h-44z" />
    <glyph glyph-name="acute" unicode="&#xc2;" 
d="M258 726h81l-70 -158h-44z" />
    <glyph glyph-name="circumflex" unicode="&#xc3;" 
d="M220 729h59l73 -161h-65l-25 63l-14 73l-14 -73l-27 -63h-59z" />
    <glyph glyph-name="tilde" unicode="&#xc4;" 
d="M286 571q-15 0 -26 7t-20 19l-15 20q-6 8 -9.5 11t-9.5 3q-7 0 -11 -5.5t-4 -22.5v-26h-44q0 32 5 54t14 35t21 18.5t25 5.5q14 0 24 -6t21 -20l15 -20q10 -13 18 -13q7 0 11 5.5t4 22.5v25h44q0 -32 -5 -53.5t-14 -35t-20.5 -19t-23.5 -5.5z" />
    <glyph glyph-name="macron" unicode="&#xc5;" 
d="M168 659h164v-63h-164v63z" />
    <glyph glyph-name="breve" unicode="&#xc6;" 
d="M252 581q-42 0 -63 32t-22 89h51v-18q0 -22 7.5 -35t26.5 -13t27 13t8 35v18h50q-1 -58 -22 -89.5t-63 -31.5z" />
    <glyph glyph-name="dotaccent" unicode="&#xc7;" 
d="M250 577q-17 0 -30 13t-13 33t13 33t30 13t30 -13t13 -33t-13 -33t-30 -13z" />
    <glyph glyph-name="dieresis" unicode="&#xc8;" 
d="M311 577q-17 0 -30 13t-13 33t13 33t30 13q18 0 30.5 -13t12.5 -33t-12.5 -33t-30.5 -13zM189 577q-18 0 -30.5 13t-12.5 33t12.5 33t30.5 13q17 0 30 -13t13 -33t-13 -33t-30 -13z" />
    <glyph glyph-name="ring" unicode="&#xca;" 
d="M250 570q-31 0 -52.5 23t-21.5 66q0 44 21.5 67.5t52.5 23.5t52.5 -23.5t21.5 -67.5q0 -43 -21.5 -66t-52.5 -23zM250 608q16 0 23 9.5t7 41.5t-7 43t-23 11t-23 -11t-7 -43t7 -41.5t23 -9.5z" />
    <glyph glyph-name="cedilla" unicode="&#xcb;" 
d="M255 -198q-22 0 -37 5.5t-25 12.5l7 33q11 -5 22 -9t24 -4q31 0 31 28v14q0 17 -3.5 23t-14.5 6q-9 0 -13.5 -3.5t-10.5 -9.5l-26 16l29 86h38l-23 -64l25 11q20 -2 35 -19t15 -52q0 -40 -21 -57t-52 -17z" />
    <glyph glyph-name="hungarumlaut" unicode="&#xcd;" horiz-adv-x="499" 
d="M317 726h74l-64 -158h-44zM204 726h74l-65 -158h-44z" />
    <glyph glyph-name="ogonek" unicode="&#xce;" horiz-adv-x="499" 
d="M251 -199q-31 0 -51.5 17t-20.5 51q0 36 21 69.5t47 61.5h30l-25 -55q-10 -23 -14.5 -38t-4.5 -34t6.5 -26t21.5 -7q11 0 20.5 3t22.5 8l6 -33q-8 -5 -23 -11t-36 -6z" />
    <glyph glyph-name="caron" unicode="&#xcf;" 
d="M149 727h64l25 -62l14 -72l14 72l27 62h59l-72 -160h-58z" />
    <glyph glyph-name="emdash" unicode="&#xd0;" horiz-adv-x="405" 
d="M30 328h346v-62h-346v62z" />
    <glyph glyph-name="AE" unicode="&#xe1;" horiz-adv-x="518" 
d="M83 0h-73l213 651h261v-67h-154v-220h133v-64h-133v-234h164v-66h-241v126h-130zM253 422l9 201l-34 -168l-87 -272h112v239z" />
    <glyph glyph-name="ordfeminine" unicode="&#xe3;" horiz-adv-x="276" 
d="M167 545q0 30 -8.5 44t-34.5 14q-20 0 -40 -5.5t-37 -11.5l-11 49q19 10 42.5 17.5t51.5 7.5q50 0 75 -30t25 -108v-220q0 -14 4.5 -18.5t13.5 -4.5h11l2 -36q-7 -5 -18 -7.5t-22 -2.5q-8 0 -16 1t-13 3l-19 37l-24 -35q-16 -7 -37 -7q-37 0 -62.5 25.5t-25.5 92.5
q0 69 25.5 98t80.5 34l37 4v59zM167 447l-33 -3q-27 -3 -37.5 -18.5t-10.5 -53.5v-37q0 -33 9 -45t29 -12q17 0 26.5 6.5t16.5 14.5v148z" />
    <glyph glyph-name="Lslash" unicode="&#xe8;" horiz-adv-x="305" 
d="M132 66h153v-66h-230v246l-44 -30v75l44 30v330h77v-278l87 59v-74l-87 -59v-233z" />
    <glyph glyph-name="Oslash" unicode="&#xe9;" horiz-adv-x="392" 
d="M320 576q38 -80 38 -247q0 -90 -9.5 -154.5t-30 -105t-51.5 -59.5t-74 -19q-51 0 -85 28l-35 -91l-49 21l45 120q-41 81 -41 258q0 171 40.5 252t125.5 81q55 0 88 -32l32 83l50 -20l-44 -115v0zM256 558q-11 21 -27 28.5t-36 7.5q-19 0 -35 -9.5t-27 -32t-17 -60.5
t-6 -95v-133q0 -50 3 -86zM133 85q11 -20 26.5 -27t34.5 -7t34.5 9t26.5 33t17 66t6 108v134q0 17 -0.5 31.5t-1.5 28.5z" />
    <glyph glyph-name="OE" unicode="&#xea;" horiz-adv-x="524" 
d="M218 0q-45 0 -80 14t-59 51t-36.5 100.5t-12.5 162.5q0 92 12 154t35.5 99.5t58 53.5t78.5 16h271v-67h-152v-220h131v-64h-131v-234h163v-66h-278v0zM255 63v521h-33q-28 0 -48.5 -8.5t-34.5 -29.5t-21 -57t-7 -92v-132q0 -64 7 -103.5t21 -61.5t34.5 -29.5t47.5 -7.5
h34z" />
    <glyph glyph-name="ordmasculine" unicode="&#xeb;" horiz-adv-x="275" 
d="M139 233q-26 0 -47 11.5t-36 37t-23 66t-8 98.5t8 99t23 66.5t36 37t47 11.5q53 0 84 -49t31 -163q0 -117 -30.5 -166t-84.5 -49zM139 283q12 0 21.5 5t16 18.5t9.5 37t3 59.5v86q0 36 -3 59.5t-9.5 36.5t-16 18t-21.5 5t-21 -5t-15.5 -18.5t-9.5 -36.5t-3 -58v-85
q0 -37 3 -61t9.5 -37.5t15.5 -18.5t21 -5z" />
    <glyph glyph-name="ae" unicode="&#xf1;" horiz-adv-x="489" 
d="M200 389q0 41 -11 59t-43 18q-24 0 -47.5 -6t-44.5 -14l-13 58q23 12 50.5 20.5t62.5 8.5q33 0 55.5 -13.5t34.5 -47.5q29 61 93 61q67 0 97.5 -58t30.5 -166v-69h-192v-29q0 -48 4.5 -78.5t14.5 -48.5t25 -25t37 -7q25 0 47 7t43 17l10 -55q-16 -11 -42.5 -20.5
t-60.5 -9.5q-42 0 -72 17t-49 56l-43 -62q-8 -4 -21 -7.5t-28 -3.5q-24 0 -45 7.5t-36 25t-24 46t-9 71.5q0 44 8.5 73.5t25 49t41 29.5t57.5 14l44 5v77zM394 293v46q0 76 -13 105t-44 29q-17 0 -29.5 -7t-20 -26t-11 -50.5t-3.5 -81.5v-15h121zM159 260q-17 -2 -29.5 -7
t-20.5 -15t-11.5 -26.5t-3.5 -40.5v-54q0 -42 13 -57t41 -15q24 0 40.5 12t31.5 32q-10 32 -15 74t-5 99v3z" />
    <glyph glyph-name="dotlessi" unicode="&#xf5;" horiz-adv-x="164" 
d="M46 524h72v-524h-72v524z" />
    <glyph glyph-name="lslash" unicode="&#xf8;" horiz-adv-x="192" 
d="M133 0h-74v289l-42 -33v74l42 33v339h74v-280l44 35v-73l-44 -35v-349z" />
    <glyph glyph-name="oslash" unicode="&#xf9;" horiz-adv-x="329" 
d="M269 464q16 -32 24.5 -81.5t8.5 -118.5q0 -75 -9.5 -127.5t-27.5 -84.5t-43.5 -46.5t-57.5 -14.5q-39 0 -66 20l-31 -83l-48 20l41 109q-17 32 -26 82t-9 122q0 75 10 127t28 84t43.5 46.5t57.5 14.5q38 0 68 -21l28 74l48 -19l-39 -103v0zM209 452q-15 19 -45 19
q-16 0 -29 -7t-22 -24t-13.5 -46.5t-4.5 -73.5v-130v-20t1 -18zM119 67q9 -11 20 -15t25 -4q15 0 27.5 7.5t21.5 25.5t14 48.5t5 76.5v122v18q0 9 -1 17z" />
    <glyph glyph-name="oe" unicode="&#xfa;" horiz-adv-x="517" 
d="M265 75q-14 -45 -38.5 -64.5t-61.5 -19.5q-32 0 -58 14.5t-44 46.5t-27.5 83.5t-9.5 125.5q0 75 10 127t28 84t43.5 46.5t57.5 14.5q37 0 61.5 -19.5t38.5 -64.5q14 46 38 65t62 19q68 0 98 -58t30 -166v-69h-192v-29q0 -48 4.5 -78.5t14.5 -48.5t25 -25t37 -7
q26 0 48 7.5t42 16.5l10 -55q-17 -11 -43.5 -20.5t-60.5 -9.5q-44 0 -71.5 19t-41.5 65zM423 293v46q0 76 -13.5 105t-44.5 29q-17 0 -29 -7.5t-20 -26t-11.5 -50t-3.5 -80.5v-16h122zM165 49q15 0 27 7.5t20 25.5t12.5 48t4.5 76v111q0 47 -4 76.5t-12.5 46.5t-20.5 23.5
t-27 6.5q-16 0 -28 -7t-20.5 -24t-12.5 -46t-4 -74v-111q0 -47 4.5 -78t12.5 -49t20.5 -25t27.5 -7z" />
    <glyph glyph-name="germandbls" unicode="&#xfb;" horiz-adv-x="384" 
d="M247 -9q-32 0 -53.5 7.5t-35.5 16.5l10 54q17 -8 32.5 -13.5t38.5 -5.5q29 0 42 16.5t13 61.5q0 23 -2.5 37.5t-9 25.5t-18 20.5t-30.5 21.5q-17 12 -30 25t-22 29.5t-14 39t-5 53.5q0 43 12 69.5t26 38.5l41 10v44q0 33 -3 55.5t-9.5 36t-18.5 19t-30 5.5t-30.5 -6
t-20 -22t-11 -43t-3.5 -68v-519h-72v490q0 64 9 107.5t26 70.5t42.5 38.5t59.5 11.5q68 0 97 -46t29 -148v-54l-27 -7q-28 -7 -39 -22.5t-11 -55.5q0 -21 2.5 -34.5t8.5 -23t16 -17.5t25 -19q19 -13 34 -27.5t25.5 -32.5t16 -41.5t5.5 -56.5q0 -142 -116 -142z" />
    <glyph glyph-name="NUL" horiz-adv-x="0" 
 />
    <glyph glyph-name="Scaron" horiz-adv-x="318" 
d="M143 -9q-45 0 -74 11t-46 22l13 58q22 -11 44 -19t49 -8q22 0 38 5t26 17t14.5 32.5t4.5 52.5q0 30 -3 51t-12 36t-24 27t-39 25q-27 15 -47 31.5t-33 38t-19.5 51t-6.5 71.5q0 90 36.5 128.5t101.5 38.5q33 0 57.5 -9t42.5 -20l-14 -60q-22 10 -40 15.5t-45 5.5
q-34 0 -50 -20t-16 -76q0 -26 2.5 -43.5t10.5 -31t23 -24.5t39 -25q27 -14 47.5 -30.5t35 -40t21.5 -55.5t7 -77q0 -89 -34.5 -133.5t-109.5 -44.5zM51 852h64l25 -62l14 -72l14 72l27 62h59l-72 -160h-58z" />
    <glyph glyph-name="scaron" horiz-adv-x="267" 
d="M118 -9q-33 0 -58 8t-41 18l12 54q17 -8 36 -14.5t45 -6.5q29 0 44.5 17t15.5 67q0 23 -2.5 38t-10 26.5t-21.5 21.5t-37 23q-39 22 -58.5 54.5t-19.5 95.5q0 38 8.5 65t23.5 43.5t36.5 24t47.5 7.5q32 0 53 -7.5t35 -17.5l-12 -56q-14 6 -31.5 11.5t-40.5 5.5
q-28 0 -40.5 -14.5t-12.5 -58.5q0 -21 3 -34.5t10 -23.5t19.5 -18.5t31.5 -19.5q24 -13 40.5 -27.5t27 -34t15.5 -44t5 -56.5q0 -75 -32 -111t-92 -36zM26 727h64l25 -62l14 -72l14 72l27 62h59l-72 -160h-58z" />
    <glyph glyph-name="Yacute" horiz-adv-x="348" 
d="M139 236l-125 415h81l69 -257l16 -141l14 141l67 257h73l-117 -412v-239h-78v236zM188 851h81l-70 -158h-44z" />
    <glyph glyph-name="yacute" horiz-adv-x="305" 
d="M118 10l-107 514h74l56 -301l14 -182l14 182l56 301h68l-139 -681h-70zM165 726h81l-70 -158h-44z" />
    <glyph glyph-name="Thorn" horiz-adv-x="360" 
d="M51 651h77v-105h52q78 0 117 -50.5t39 -157.5q0 -108 -38.5 -158t-116.5 -50h-53v-130h-77v651zM177 190q41 0 59.5 24.5t18.5 91.5v62q0 65 -18 89t-62 24h-47v-291h49z" />
    <glyph glyph-name="thorn" horiz-adv-x="336" 
d="M116 -157h-72v862h72v-222q14 21 34 35.5t47 14.5t48 -13t35.5 -44t22 -83.5t7.5 -131.5t-8 -131t-23 -83t-37 -43.5t-51 -12.5q-11 0 -21.5 2t-15.5 4l-38 42v-196zM116 67q12 -11 25.5 -17.5t31.5 -6.5q17 0 29 7t20 25t11.5 48.5t3.5 76.5v121q0 46 -4 75t-11.5 45
t-18.5 22t-25 6q-22 0 -36.5 -9t-25.5 -20v-373z" />
    <glyph glyph-name="Zcaron" horiz-adv-x="318" 
d="M26 73l171 470l34 49l-61 -6h-137v65h254v-79l-170 -461l-38 -56l65 9h145v-64h-263v73zM59 852h64l25 -62l14 -72l14 72l27 62h59l-72 -160h-58z" />
    <glyph glyph-name="zcaron" horiz-adv-x="264" 
d="M20 64l137 363l29 40l-60 -6h-98v63h214v-70l-135 -359l-32 -43l60 7h108v-59h-223v64zM32 727h64l25 -62l14 -72l14 72l27 62h59l-72 -160h-58z" />
    <glyph glyph-name="onehalf" horiz-adv-x="521" 
d="M33 333h34v238h-34v34l58 46h35v-318h33v-42h-126v42zM359 651h52l-264 -651h-53zM331 46l2 11q7 41 22 65.5t35 49.5q18 21 25.5 36.5t7.5 37.5v19q0 29 -8 38.5t-25 9.5q-14 0 -26 -4t-22 -9l-10 45q12 8 28.5 14.5t41.5 6.5q84 0 84 -103q0 -25 -4 -43t-12 -33
t-19 -27.5t-25 -27.5q-17 -18 -27 -36t-14 -44l-1 -8l37 7h62v-51h-152v46z" />
    <glyph glyph-name="onequarter" horiz-adv-x="520" 
d="M33 333h34v238h-34v34l58 46h35v-318h33v-42h-126v42zM369 651h52l-265 -651h-52zM402 79h-107v39l93 242h73v-234h29v-47h-29v-79h-59v79zM404 124v76l9 136l-26 -108l-39 -104h56z" />
    <glyph glyph-name="onesuperior" horiz-adv-x="191" 
d="M33 333h34v238h-34v34l58 46h35v-318h33v-42h-126v42z" />
    <glyph glyph-name="threequarters" horiz-adv-x="520" 
d="M95 285q-24 0 -40.5 5.5t-27.5 13.5l8 41q11 -5 22.5 -9t28.5 -4q21 0 30 12t9 41v19q0 31 -9.5 41t-30.5 10h-23v45h21q21 0 30 9.5t9 36.5v16q0 26 -9.5 35.5t-26.5 9.5q-14 0 -24 -3.5t-23 -8.5l-8 43q11 7 27 12.5t39 5.5q42 0 63 -24t21 -69q0 -38 -12.5 -56.5
t-37.5 -26.5q27 -7 42 -27.5t15 -65.5q0 -51 -25.5 -76.5t-67.5 -25.5zM373 651h52l-264 -651h-53zM403 79h-107v39l93 242h72v-234h30v-47h-30v-79h-58v79zM404 124v76l10 136l-26 -108l-40 -104h56z" />
    <glyph glyph-name="threesuperior" horiz-adv-x="211" 
d="M90 285q-24 0 -40.5 5.5t-27.5 13.5l8 41q11 -5 22.5 -9t28.5 -4q21 0 30 12t9 41v19q0 31 -9.5 41t-30.5 10h-23v45h21q21 0 30 9.5t9 36.5v16q0 26 -9.5 35.5t-26.5 9.5q-14 0 -24 -3.5t-23 -8.5l-8 43q11 7 27 12.5t39 5.5q42 0 63 -24t21 -69q0 -38 -12.5 -56.5
t-37.5 -26.5q27 -7 41.5 -27.5t14.5 -65.5q0 -51 -25 -76.5t-67 -25.5z" />
    <glyph glyph-name="twosuperior" horiz-adv-x="207" 
d="M25 337l2 10q7 41 22 66t35 49q18 22 25 37t7 38v18q0 29 -7.5 39t-24.5 10q-14 0 -26 -4t-22 -9l-10 45q12 8 28 14t42 6q41 0 62 -24.5t21 -78.5q0 -25 -4 -43t-11.5 -33t-18.5 -27.5t-25 -27.5q-17 -17 -27 -35t-14 -45l-1 -8l37 8h62v-51h-152v46z" />
    <glyph glyph-name="brokenbar" horiz-adv-x="132" 
d="M38 711h56v-372h-56v372zM38 273h56v-366h-56v366z" />
    <glyph glyph-name="minus" horiz-adv-x="325" 
d="M31 335h265v-61h-265v61z" />
    <glyph glyph-name="multiply" horiz-adv-x="338" 
d="M303 187l-48 -39l-86 107l-87 -107l-47 39l94 117l-94 117l48 39l86 -107l87 107l46 -39l-94 -116z" />
    <glyph glyph-name="eth" horiz-adv-x="322" 
d="M113 561l-20 39l60 36q-11 21 -22 41.5t-23 40.5h69q15 -20 31 -49l61 36l19 -40l-59 -35q28 -56 51 -140.5t23 -199.5q0 -86 -9 -143.5t-27 -92t-43.5 -49t-58.5 -14.5q-32 0 -58 14t-44 44.5t-27.5 79.5t-9.5 119q0 69 9.5 117.5t26 79.5t39.5 45.5t50 14.5q12 0 21 -3
l45 -44q-15 76 -45 138zM224 419q-12 14 -25 21.5t-33 7.5q-35 0 -50 -36.5t-15 -128.5v-72q0 -49 4 -80.5t12.5 -49.5t20.5 -25t27 -7q16 0 28 7t20 27t12 56.5t4 94.5v95q0 24 -1.5 46.5t-3.5 43.5z" />
    <glyph glyph-name="Adieresis" horiz-adv-x="369" 
d="M87 0h-69l126 652h84l124 -652h-79l-23 126h-139zM198 412l-15 187l-17 -187l-45 -229h119zM245 700q-17 0 -30 13t-13 33t13 33t30 13q18 0 30.5 -13t12.5 -33t-12.5 -33t-30.5 -13zM123 700q-18 0 -30.5 13t-12.5 33t12.5 33t30.5 13q17 0 30 -13t13 -33t-13 -33
t-30 -13z" />
    <glyph glyph-name="Aring" horiz-adv-x="369" 
d="M111 126l-24 -126h-69l123 634q-14 11 -22 29.5t-8 44.5q0 44 21 67t52 23q32 0 53 -23t21 -67q0 -25 -7.5 -43t-19.5 -28l121 -637h-79l-23 126h-139zM184 656q17 0 23.5 10t6.5 42t-6.5 43t-23.5 11q-16 0 -22.5 -11t-6.5 -43t6.5 -42t22.5 -10zM240 183l-42 229
l-15 187l-17 -187l-45 -229h119z" />
    <glyph glyph-name="Ccedilla" horiz-adv-x="322" 
d="M163 -5q-71 17 -101.5 98t-30.5 234q0 171 40.5 252t128.5 81q34 0 57 -8.5t41 -20.5l-14 -60q-23 10 -39.5 15t-39.5 5q-20 0 -37 -8t-29.5 -29.5t-19.5 -59.5t-7 -99v-131q0 -65 6.5 -106t18.5 -63.5t29 -30.5t38 -8q28 0 46.5 7t38.5 18l18 -58q-17 -13 -42.5 -22.5
t-64.5 -9.5l-20 -55l25 11q20 -2 35 -19t15 -52q0 -40 -21 -57t-52 -17q-22 0 -37 5.5t-25 12.5l7 33q11 -5 22 -9t24 -4q31 0 31 28v14q0 17 -3.5 23t-14.5 6q-9 0 -13.5 -3.5t-10.5 -9.5l-26 16l27 81v0z" />
    <glyph glyph-name="Eacute" horiz-adv-x="321" 
d="M51 651h231v-67h-155v-220h134v-64h-134v-234h165v-66h-241v651zM172 851h81l-70 -158h-44z" />
    <glyph glyph-name="Ntilde" horiz-adv-x="400" 
d="M51 651h77l125 -374l48 -203l-19 237v340h67v-651h-75l-131 389l-43 191l17 -225v-355h-66v651zM236 696q-15 0 -26 7t-20 19l-15 20q-6 8 -9.5 11t-9.5 3q-7 0 -11 -5.5t-4 -22.5v-26h-44q0 32 5 54t14 35t21 18.5t25 5.5q14 0 24 -6t21 -20l15 -20q10 -13 18 -13
q7 0 11 5.5t4 22.5v25h44q0 -32 -5 -53.5t-14 -35t-20.5 -19t-23.5 -5.5z" />
    <glyph glyph-name="Odieresis" horiz-adv-x="392" 
d="M195 -9q-85 0 -124.5 81t-39.5 255q0 172 40 252.5t125 80.5t125 -79.5t40 -251.5q0 -91 -9.5 -155.5t-30 -105t-51.5 -59t-75 -18.5zM196 52q20 0 35.5 9t26 33t16.5 65.5t6 107.5v134q0 57 -5.5 94t-16.5 59t-26.5 31t-35.5 9t-35.5 -9.5t-26.5 -32t-17 -60.5t-6 -95
v-133q0 -66 6 -107t17 -64.5t27 -32t35 -8.5zM256 700q-17 0 -30 13t-13 33t13 33t30 13q18 0 30.5 -13t12.5 -33t-12.5 -33t-30.5 -13zM134 700q-18 0 -30.5 13t-12.5 33t12.5 33t30.5 13q17 0 30 -13t13 -33t-13 -33t-30 -13z" />
    <glyph glyph-name="Udieresis" horiz-adv-x="393" 
d="M264 651h78v-651h-50l-22 54l-28 -49q-9 -5 -26 -9.5t-39 -4.5q-31 0 -55.5 10.5t-41 35t-25.5 64.5t-9 99v451h79v-497q0 -59 16.5 -80.5t51.5 -21.5q25 0 40 8t31 21v570zM255 700q-17 0 -30 13t-13 33t13 33t30 13q18 0 30.5 -13t12.5 -33t-12.5 -33t-30.5 -13z
M133 700q-18 0 -30.5 13t-12.5 33t12.5 33t30.5 13q17 0 30 -13t13 -33t-13 -33t-30 -13z" />
    <glyph glyph-name="aacute" horiz-adv-x="320" 
d="M200 389q0 41 -11 59t-43 18q-24 0 -47.5 -6t-44.5 -14l-13 58q23 12 50.5 20.5t62.5 8.5q29 0 51 -8.5t37 -28.5t22.5 -53.5t7.5 -83.5v-285q0 -17 5.5 -22t16.5 -5h13l1 -41q-7 -6 -19 -10t-26 -4q-10 0 -18 2t-14 4l-24 46l-27 -44q-8 -4 -19.5 -6.5t-25.5 -2.5
q-22 0 -42.5 7.5t-35.5 25t-24 46t-9 71.5q0 44 8.5 73.5t25 49t41 29.5t57.5 14l44 5v77zM200 265l-41 -5q-35 -4 -50 -22t-15 -67v-54q0 -42 13.5 -57t39.5 -15q20 0 32.5 7.5t20.5 17.5v195zM160 726h81l-70 -158h-44z" />
    <glyph glyph-name="agrave" horiz-adv-x="320" 
d="M200 389q0 41 -11 59t-43 18q-24 0 -47.5 -6t-44.5 -14l-13 58q23 12 50.5 20.5t62.5 8.5q29 0 51 -8.5t37 -28.5t22.5 -53.5t7.5 -83.5v-285q0 -17 5.5 -22t16.5 -5h13l1 -41q-7 -6 -19 -10t-26 -4q-10 0 -18 2t-14 4l-24 46l-27 -44q-8 -4 -19.5 -6.5t-25.5 -2.5
q-22 0 -42.5 7.5t-35.5 25t-24 46t-9 71.5q0 44 8.5 73.5t25 49t41 29.5t57.5 14l44 5v77zM200 265l-41 -5q-35 -4 -50 -22t-15 -67v-54q0 -42 13.5 -57t39.5 -15q20 0 32.5 7.5t20.5 17.5v195zM72 726h82l33 -158h-44z" />
    <glyph glyph-name="acircumflex" horiz-adv-x="320" 
d="M200 389q0 41 -11 59t-43 18q-24 0 -47.5 -6t-44.5 -14l-13 58q23 12 50.5 20.5t62.5 8.5q29 0 51 -8.5t37 -28.5t22.5 -53.5t7.5 -83.5v-285q0 -17 5.5 -22t16.5 -5h13l1 -41q-7 -6 -19 -10t-26 -4q-10 0 -18 2t-14 4l-24 46l-27 -44q-8 -4 -19.5 -6.5t-25.5 -2.5
q-22 0 -42.5 7.5t-35.5 25t-24 46t-9 71.5q0 44 8.5 73.5t25 49t41 29.5t57.5 14l44 5v77zM200 265l-41 -5q-35 -4 -50 -22t-15 -67v-54q0 -42 13.5 -57t39.5 -15q20 0 32.5 7.5t20.5 17.5v195zM126 729h59l73 -161h-65l-25 63l-14 73l-14 -73l-27 -63h-59z" />
    <glyph glyph-name="adieresis" horiz-adv-x="320" 
d="M200 389q0 41 -11 59t-43 18q-24 0 -47.5 -6t-44.5 -14l-13 58q23 12 50.5 20.5t62.5 8.5q29 0 51 -8.5t37 -28.5t22.5 -53.5t7.5 -83.5v-285q0 -17 5.5 -22t16.5 -5h13l1 -41q-7 -6 -19 -10t-26 -4q-10 0 -18 2t-14 4l-24 46l-27 -44q-8 -4 -19.5 -6.5t-25.5 -2.5
q-22 0 -42.5 7.5t-35.5 25t-24 46t-9 71.5q0 44 8.5 73.5t25 49t41 29.5t57.5 14l44 5v77zM200 265l-41 -5q-35 -4 -50 -22t-15 -67v-54q0 -42 13.5 -57t39.5 -15q20 0 32.5 7.5t20.5 17.5v195zM218 577q-17 0 -30 13t-13 33t13 33t30 13q18 0 30.5 -13t12.5 -33t-12.5 -33
t-30.5 -13zM96 577q-18 0 -30.5 13t-12.5 33t12.5 33t30.5 13q17 0 30 -13t13 -33t-13 -33t-30 -13z" />
    <glyph glyph-name="atilde" horiz-adv-x="320" 
d="M200 389q0 41 -11 59t-43 18q-24 0 -47.5 -6t-44.5 -14l-13 58q23 12 50.5 20.5t62.5 8.5q29 0 51 -8.5t37 -28.5t22.5 -53.5t7.5 -83.5v-285q0 -17 5.5 -22t16.5 -5h13l1 -41q-7 -6 -19 -10t-26 -4q-10 0 -18 2t-14 4l-24 46l-27 -44q-8 -4 -19.5 -6.5t-25.5 -2.5
q-22 0 -42.5 7.5t-35.5 25t-24 46t-9 71.5q0 44 8.5 73.5t25 49t41 29.5t57.5 14l44 5v77zM200 265l-41 -5q-35 -4 -50 -22t-15 -67v-54q0 -42 13.5 -57t39.5 -15q20 0 32.5 7.5t20.5 17.5v195zM192 571q-15 0 -26 7t-20 19l-15 20q-6 8 -9.5 11t-9.5 3q-7 0 -11 -5.5
t-4 -22.5v-26h-44q0 32 5 54t14 35t21 18.5t25 5.5q14 0 24 -6t21 -20l15 -20q10 -13 18 -13q7 0 11 5.5t4 22.5v25h44q0 -32 -5 -53.5t-14 -35t-20.5 -19t-23.5 -5.5z" />
    <glyph glyph-name="aring" horiz-adv-x="320" 
d="M200 389q0 41 -11 59t-43 18q-24 0 -47.5 -6t-44.5 -14l-13 58q23 12 50.5 20.5t62.5 8.5q29 0 51 -8.5t37 -28.5t22.5 -53.5t7.5 -83.5v-285q0 -17 5.5 -22t16.5 -5h13l1 -41q-7 -6 -19 -10t-26 -4q-10 0 -18 2t-14 4l-24 46l-27 -44q-8 -4 -19.5 -6.5t-25.5 -2.5
q-22 0 -42.5 7.5t-35.5 25t-24 46t-9 71.5q0 44 8.5 73.5t25 49t41 29.5t57.5 14l44 5v77zM200 265l-41 -5q-35 -4 -50 -22t-15 -67v-54q0 -42 13.5 -57t39.5 -15q20 0 32.5 7.5t20.5 17.5v195zM156 570q-31 0 -52.5 23t-21.5 66q0 44 21.5 67.5t52.5 23.5t52.5 -23.5
t21.5 -67.5q0 -43 -21.5 -66t-52.5 -23zM156 608q16 0 23 9.5t7 41.5t-7 43t-23 11t-23 -11t-7 -43t7 -41.5t23 -9.5z" />
    <glyph glyph-name="ccedilla" horiz-adv-x="267" 
d="M131 -5q-52 12 -78.5 74t-26.5 193q0 75 9 127t27 84t44.5 46t60.5 14q27 0 47.5 -7t34.5 -16l-11 -57q-17 7 -32.5 11.5t-34.5 4.5q-18 0 -31 -6.5t-22 -23.5t-13 -46t-4 -74v-110q0 -47 4.5 -77.5t13 -48.5t21.5 -25t31 -7q19 0 35.5 6t33.5 14l12 -53
q-14 -10 -34.5 -18t-49.5 -9l-20 -55l25 11q20 -2 35 -19t15 -52q0 -40 -21 -57t-52 -17q-22 0 -37 5.5t-25 12.5l7 33q11 -5 22 -9t24 -4q31 0 31 28v14q0 17 -3.5 23t-14.5 6q-9 0 -13.5 -3.5t-10.5 -9.5l-26 16l27 81v0z" />
    <glyph glyph-name="eacute" horiz-adv-x="319" 
d="M100 211q0 -48 4.5 -78.5t14.5 -48.5t25.5 -25t36.5 -7q25 0 47 7t43 17l10 -55q-16 -11 -42.5 -20.5t-61.5 -9.5q-38 0 -66.5 14t-47 46t-28 83.5t-9.5 126.5q0 76 9 128t27 84t44 46t59 14q67 0 97.5 -58t30.5 -166v-69h-193v-29zM222 293v46q0 76 -13.5 105t-44.5 29
q-17 0 -29 -7t-20 -26t-11.5 -50.5t-3.5 -81.5v-15h122zM170 726h81l-70 -158h-44z" />
    <glyph glyph-name="egrave" horiz-adv-x="319" 
d="M100 211q0 -48 4.5 -78.5t14.5 -48.5t25.5 -25t36.5 -7q25 0 47 7t43 17l10 -55q-16 -11 -42.5 -20.5t-61.5 -9.5q-38 0 -66.5 14t-47 46t-28 83.5t-9.5 126.5q0 76 9 128t27 84t44 46t59 14q67 0 97.5 -58t30.5 -166v-69h-193v-29zM222 293v46q0 76 -13.5 105t-44.5 29
q-17 0 -29 -7t-20 -26t-11.5 -50.5t-3.5 -81.5v-15h122zM74 726h82l33 -158h-44z" />
    <glyph glyph-name="ecircumflex" horiz-adv-x="319" 
d="M100 211q0 -48 4.5 -78.5t14.5 -48.5t25.5 -25t36.5 -7q25 0 47 7t43 17l10 -55q-16 -11 -42.5 -20.5t-61.5 -9.5q-38 0 -66.5 14t-47 46t-28 83.5t-9.5 126.5q0 76 9 128t27 84t44 46t59 14q67 0 97.5 -58t30.5 -166v-69h-193v-29zM222 293v46q0 76 -13.5 105t-44.5 29
q-17 0 -29 -7t-20 -26t-11.5 -50.5t-3.5 -81.5v-15h122zM132 729h59l73 -161h-65l-25 63l-14 73l-14 -73l-27 -63h-59z" />
    <glyph glyph-name="edieresis" horiz-adv-x="319" 
d="M100 211q0 -48 4.5 -78.5t14.5 -48.5t25.5 -25t36.5 -7q25 0 47 7t43 17l10 -55q-16 -11 -42.5 -20.5t-61.5 -9.5q-38 0 -66.5 14t-47 46t-28 83.5t-9.5 126.5q0 76 9 128t27 84t44 46t59 14q67 0 97.5 -58t30.5 -166v-69h-193v-29zM222 293v46q0 76 -13.5 105t-44.5 29
q-17 0 -29 -7t-20 -26t-11.5 -50.5t-3.5 -81.5v-15h122zM223 577q-17 0 -30 13t-13 33t13 33t30 13q18 0 30.5 -13t12.5 -33t-12.5 -33t-30.5 -13zM101 577q-18 0 -30.5 13t-12.5 33t12.5 33t30.5 13q17 0 30 -13t13 -33t-13 -33t-30 -13z" />
    <glyph glyph-name="iacute" horiz-adv-x="164" 
d="M46 524h72v-524h-72v524zM89 726h81l-70 -158h-44z" />
    <glyph glyph-name="igrave" horiz-adv-x="164" 
d="M46 524h72v-524h-72v524zM-8 726h82l33 -158h-44z" />
    <glyph glyph-name="icircumflex" horiz-adv-x="164" 
d="M46 524h72v-524h-72v524zM52 729h59l73 -161h-65l-25 63l-14 73l-14 -73l-27 -63h-59z" />
    <glyph glyph-name="idieresis" horiz-adv-x="164" 
d="M46 524h72v-524h-72v524zM143 577q-17 0 -30 13t-13 33t13 33t30 13q18 0 30.5 -13t12.5 -33t-12.5 -33t-30.5 -13zM21 577q-18 0 -30.5 13t-12.5 33t12.5 33t30.5 13q17 0 30 -13t13 -33t-13 -33t-30 -13z" />
    <glyph glyph-name="ntilde" horiz-adv-x="339" 
d="M147 517q10 6 25 11t33 5q20 0 36.5 -6.5t29.5 -22t20 -41t7 -63.5v-400h-72v422q0 26 -11.5 36.5t-32.5 10.5q-20 0 -35 -7t-31 -18v-444h-72v524h44l25 -54zM205 571q-15 0 -26 7t-20 19l-15 20q-6 8 -9.5 11t-9.5 3q-7 0 -11 -5.5t-4 -22.5v-26h-44q0 32 5 54t14 35
t21 18.5t25 5.5q14 0 24 -6t21 -20l15 -20q10 -13 18 -13q7 0 11 5.5t4 22.5v25h44q0 -32 -5 -53.5t-14 -35t-20.5 -19t-23.5 -5.5z" />
    <glyph glyph-name="oacute" horiz-adv-x="329" 
d="M165 -9q-32 0 -57.5 14t-43.5 46t-28 83.5t-10 126.5t10 127t28 84.5t43.5 46.5t57.5 14t57.5 -14.5t43.5 -46.5t27.5 -83t9.5 -125q0 -76 -9.5 -128t-27.5 -84t-43.5 -46.5t-57.5 -14.5zM165 50q15 0 26.5 7t20 25t12.5 48t4 76v112q0 46 -4 75.5t-12 46.5t-20 23.5
t-27 6.5q-16 0 -28 -7t-20 -24t-12 -46t-4 -73v-113q0 -47 4 -77.5t12.5 -48t20.5 -24.5t27 -7zM171 726h81l-70 -158h-44z" />
    <glyph glyph-name="ograve" horiz-adv-x="329" 
d="M165 -9q-32 0 -57.5 14t-43.5 46t-28 83.5t-10 126.5t10 127t28 84.5t43.5 46.5t57.5 14t57.5 -14.5t43.5 -46.5t27.5 -83t9.5 -125q0 -76 -9.5 -128t-27.5 -84t-43.5 -46.5t-57.5 -14.5zM165 50q15 0 26.5 7t20 25t12.5 48t4 76v112q0 46 -4 75.5t-12 46.5t-20 23.5
t-27 6.5q-16 0 -28 -7t-20 -24t-12 -46t-4 -73v-113q0 -47 4 -77.5t12.5 -48t20.5 -24.5t27 -7zM74 726h82l33 -158h-44z" />
    <glyph glyph-name="ocircumflex" horiz-adv-x="329" 
d="M165 -9q-32 0 -57.5 14t-43.5 46t-28 83.5t-10 126.5t10 127t28 84.5t43.5 46.5t57.5 14t57.5 -14.5t43.5 -46.5t27.5 -83t9.5 -125q0 -76 -9.5 -128t-27.5 -84t-43.5 -46.5t-57.5 -14.5zM165 50q15 0 26.5 7t20 25t12.5 48t4 76v112q0 46 -4 75.5t-12 46.5t-20 23.5
t-27 6.5q-16 0 -28 -7t-20 -24t-12 -46t-4 -73v-113q0 -47 4 -77.5t12.5 -48t20.5 -24.5t27 -7zM133 729h59l73 -161h-65l-25 63l-14 73l-14 -73l-27 -63h-59z" />
    <glyph glyph-name="odieresis" horiz-adv-x="329" 
d="M165 -9q-32 0 -57.5 14t-43.5 46t-28 83.5t-10 126.5t10 127t28 84.5t43.5 46.5t57.5 14t57.5 -14.5t43.5 -46.5t27.5 -83t9.5 -125q0 -76 -9.5 -128t-27.5 -84t-43.5 -46.5t-57.5 -14.5zM165 50q15 0 26.5 7t20 25t12.5 48t4 76v112q0 46 -4 75.5t-12 46.5t-20 23.5
t-27 6.5q-16 0 -28 -7t-20 -24t-12 -46t-4 -73v-113q0 -47 4 -77.5t12.5 -48t20.5 -24.5t27 -7zM224 577q-17 0 -30 13t-13 33t13 33t30 13q18 0 30.5 -13t12.5 -33t-12.5 -33t-30.5 -13zM102 577q-18 0 -30.5 13t-12.5 33t12.5 33t30.5 13q17 0 30 -13t13 -33t-13 -33
t-30 -13z" />
    <glyph glyph-name="otilde" horiz-adv-x="329" 
d="M165 -9q-32 0 -57.5 14t-43.5 46t-28 83.5t-10 126.5t10 127t28 84.5t43.5 46.5t57.5 14t57.5 -14.5t43.5 -46.5t27.5 -83t9.5 -125q0 -76 -9.5 -128t-27.5 -84t-43.5 -46.5t-57.5 -14.5zM165 50q15 0 26.5 7t20 25t12.5 48t4 76v112q0 46 -4 75.5t-12 46.5t-20 23.5
t-27 6.5q-16 0 -28 -7t-20 -24t-12 -46t-4 -73v-113q0 -47 4 -77.5t12.5 -48t20.5 -24.5t27 -7zM199 571q-15 0 -26 7t-20 19l-15 20q-6 8 -9.5 11t-9.5 3q-7 0 -11 -5.5t-4 -22.5v-26h-44q0 32 5 54t14 35t21 18.5t25 5.5q14 0 24 -6t21 -20l15 -20q10 -13 18 -13
q7 0 11 5.5t4 22.5v25h44q0 -32 -5 -53.5t-14 -35t-20.5 -19t-23.5 -5.5z" />
    <glyph glyph-name="uacute" horiz-adv-x="339" 
d="M223 524h72v-524h-44l-26 53l-32 -47q-11 -6 -25.5 -10.5t-32.5 -4.5q-19 0 -36.5 6.5t-30 22t-20 41t-7.5 63.5v400h72v-422q0 -27 11.5 -38.5t33.5 -11.5t36.5 6.5t28.5 17.5v448zM178 726h81l-70 -158h-44z" />
    <glyph glyph-name="ugrave" horiz-adv-x="339" 
d="M223 524h72v-524h-44l-26 53l-32 -47q-11 -6 -25.5 -10.5t-32.5 -4.5q-19 0 -36.5 6.5t-30 22t-20 41t-7.5 63.5v400h72v-422q0 -27 11.5 -38.5t33.5 -11.5t36.5 6.5t28.5 17.5v448zM81 726h82l33 -158h-44z" />
    <glyph glyph-name="ucircumflex" horiz-adv-x="339" 
d="M223 524h72v-524h-44l-26 53l-32 -47q-11 -6 -25.5 -10.5t-32.5 -4.5q-19 0 -36.5 6.5t-30 22t-20 41t-7.5 63.5v400h72v-422q0 -27 11.5 -38.5t33.5 -11.5t36.5 6.5t28.5 17.5v448zM140 729h59l73 -161h-65l-25 63l-14 73l-14 -73l-27 -63h-59z" />
    <glyph glyph-name="udieresis" horiz-adv-x="339" 
d="M223 524h72v-524h-44l-26 53l-32 -47q-11 -6 -25.5 -10.5t-32.5 -4.5q-19 0 -36.5 6.5t-30 22t-20 41t-7.5 63.5v400h72v-422q0 -27 11.5 -38.5t33.5 -11.5t36.5 6.5t28.5 17.5v448zM230 577q-17 0 -30 13t-13 33t13 33t30 13q18 0 30.5 -13t12.5 -33t-12.5 -33
t-30.5 -13zM108 577q-18 0 -30.5 13t-12.5 33t12.5 33t30.5 13q17 0 30 -13t13 -33t-13 -33t-30 -13z" />
    <glyph glyph-name="degree" horiz-adv-x="206" 
d="M104 402q-16 0 -31 7t-26.5 22t-18.5 39.5t-7 60.5t7 60.5t18.5 39.5t26.5 22t31 7q15 0 29.5 -7t26 -22t18.5 -39.5t7 -59.5q0 -36 -7 -61t-18.5 -40t-26 -22t-29.5 -7zM103 441q16 0 24 14.5t8 56.5v44q0 38 -8 50t-24 12t-24 -12.5t-8 -49.5v-43q0 -43 8 -57.5
t24 -14.5z" />
    <glyph glyph-name="registered" horiz-adv-x="320" 
d="M159 237q-69 0 -102 54t-33 159q0 102 34.5 156t101.5 54q66 0 101 -53t35 -156q0 -112 -34.5 -163t-102.5 -51zM159 265q28 0 48 9.5t33 31t19 57.5t6 88q0 97 -25 139t-80 42q-56 0 -80.5 -42.5t-24.5 -139.5q0 -100 23.5 -142.5t80.5 -42.5zM204 411l28 -83h-42
l-31 97h-19v-97h-41v246h61q34 0 52 -20.5t18 -55.5q0 -26 -11 -44.5t-38 -23.5zM157 453q31 0 31 33v23q0 17 -7.5 24t-23.5 7h-17v-87h17z" />
    <glyph glyph-name="copyright" horiz-adv-x="414" 
d="M205 -10q-86 0 -130.5 82.5t-44.5 254.5q0 170 45.5 251.5t130.5 81.5q87 0 132.5 -80t45.5 -251q0 -91 -11.5 -155t-34 -105t-56 -60t-77.5 -19zM205 21q38 0 65 16t44.5 52t26 95t8.5 145q0 159 -35 229t-108 70t-107.5 -71.5t-34.5 -229.5q0 -82 8.5 -140t25.5 -95
t43.5 -54t63.5 -17zM212 104q-58 0 -83 54t-25 169q0 114 25.5 167.5t82.5 53.5q22 0 37.5 -5t29.5 -13l-7 -48q-15 6 -28 9t-28 3q-12 0 -21.5 -5t-15.5 -18.5t-9 -37t-3 -60.5v-90q0 -40 3 -65t9.5 -39t16 -19t21.5 -5q17 0 29 4t27 11l11 -45q-14 -9 -31.5 -15t-40.5 -6z
" />
    <glyph glyph-name="trademark" horiz-adv-x="495" 
d="M219 651h73l37 -200l9 -124l12 124l38 200h74v-348h-53v116l9 207l-23 -153l-34 -170h-50l-33 172l-20 151l7 -205v-118h-46v348zM21 605v46h170v-46h-58v-302h-54v302h-58z" />
    <glyph glyph-name="notequal" horiz-adv-x="400" 
d="M212 467v57h32v74q0 63 25 88.5t66 25.5q20 0 36.5 -5t27.5 -13l-3 -45h-51q-16 0 -22.5 -7t-6.5 -26v-92h73v-57h-73v-467h-72v467h-32zM14 467v57h41v74q0 63 25.5 88.5t66.5 25.5q19 0 35 -5t26 -12l-3 -46h-50q-15 0 -21.5 -7t-6.5 -26v-92h57v-57h-57v-467h-72v467
h-41z" />
    <glyph glyph-name="infinity" horiz-adv-x="553" 
d="M469 606q-20 0 -34.5 14.5t-14.5 35.5t14.5 35t34.5 14t34.5 -14t14.5 -35t-14.5 -35.5t-34.5 -14.5zM212 467v57h32v74q0 63 25.5 88.5t63.5 25.5q17 0 31 -5t23 -10l-3 -48h-39q-16 0 -22.5 -7t-6.5 -26v-92h72v-57h-72v-467h-72v467h-32zM14 467v57h41v74
q0 63 25.5 88.5t66.5 25.5q19 0 35 -4.5t26 -11.5l-3 -47h-50q-15 0 -21.5 -7t-6.5 -26v-92h57v-57h-57v-467h-72v467h-41zM432 524h73v-524h-73v524z" />
    <glyph glyph-name="plusminus" horiz-adv-x="550" 
d="M212 467v57h32v74q0 63 25.5 88.5t63.5 25.5q17 0 32.5 -5t24.5 -10l-4 -48h-41q-16 0 -22.5 -7t-6.5 -26v-92h72v-57h-72v-467h-72v467h-32zM14 467v57h41v74q0 63 25.5 88.5t66.5 25.5q19 0 35 -4.5t26 -11.5l-3 -47h-50q-15 0 -21.5 -7t-6.5 -26v-92h57v-57h-57v-467
h-72v467h-41zM431 702h72v-702h-72v702z" />
    <glyph glyph-name="lessequal" horiz-adv-x="176" 
d="M49 378v299h79v-299l-22 -209h-36zM40 -94l32 99l-23 6q-5 5 -9 14t-4 21q0 26 16 41t37 15q20 0 35.5 -15.5t15.5 -39.5q0 -20 -8 -37.5t-19 -37.5l-47 -78z" />
    <glyph glyph-name="greaterequal" horiz-adv-x="279" 
d="M77 312q-2 29 2.5 40.5t24.5 20.5q21 9 34 17t20.5 21t10 33t2.5 54v31q0 28 -4 45.5t-12 27.5t-20 13.5t-28 3.5q-23 0 -41.5 -5.5t-40.5 -14.5l-12 55q17 11 43 21t60 10q62 0 98 -38.5t36 -127.5q0 -48 -6.5 -80t-20 -53.5t-34.5 -35t-50 -24.5v-157h-50zM65 -94
l32 99l-22 6q-5 5 -9.5 14t-4.5 21q0 26 16 41t37 15q20 0 36 -15.5t16 -39.5q0 -20 -8.5 -37.5t-19.5 -37.5l-46 -78z" />
    <glyph glyph-name="mu" horiz-adv-x="340" 
d="M224 524h73v-524h-44l-26 52l-31 -47q-8 -5 -21.5 -8.5t-27.5 -3.5h-11q-3 0 -5 1l-35 41l19 -80v-117h-72v686h72v-423q0 -26 11 -37.5t33 -11.5t36 6.5t29 17.5v448z" />
    <glyph glyph-name="partialdiff" horiz-adv-x="363" 
d="M46 -14q-14 0 -22.5 20.5t-14.5 62.5t-10 105.5t-8 150.5h18q2 -50 5 -106.5t7 -104t10 -78.5t15 -31t14.5 31t9.5 78.5t7 104t6 106.5q9 173 18 255.5t35 82.5q27 0 35.5 -82.5t17.5 -255.5q3 -50 5.5 -106.5t7 -104t10.5 -78.5t15 -31t14.5 31t10 78.5t7 104t5.5 106.5
q9 173 17.5 255.5t35.5 82.5t36.5 -82.5t18.5 -255.5h-18q-3 50 -5.5 106.5t-7 103.5t-10 78t-14.5 31t-14.5 -31t-9 -78t-6 -103.5t-5.5 -106.5q-9 -173 -18.5 -256t-36.5 -83t-36.5 83t-18.5 256q-3 50 -5.5 106.5t-6 103.5t-9.5 78t-15 31q-8 0 -13.5 -31t-9.5 -78
t-6.5 -103.5t-5.5 -106.5q-9 -173 -18.5 -256t-36.5 -83z" />
    <glyph glyph-name="summation" horiz-adv-x="363" 
d="M46 -14q-14 0 -22.5 20.5t-14.5 62.5t-10 105.5t-8 150.5h18q2 -50 5 -106.5t7 -104t10 -78.5t15 -31t14.5 31t9.5 78.5t7 104t6 106.5q9 173 18 255.5t35 82.5q27 0 35.5 -82.5t17.5 -255.5q3 -50 5.5 -106.5t7 -104t10.5 -78.5t15 -31t14.5 31t10 78.5t7 104t5.5 106.5
q9 173 17.5 255.5t35.5 82.5t36.5 -82.5t18.5 -255.5h-18q-3 50 -5.5 106.5t-7 103.5t-10 78t-14.5 31t-14.5 -31t-9 -78t-6 -103.5t-5.5 -106.5q-9 -173 -18.5 -256t-36.5 -83t-36.5 83t-18.5 256q-3 50 -5.5 106.5t-6 103.5t-9.5 78t-15 31q-8 0 -13.5 -31t-9.5 -78
t-6.5 -103.5t-5.5 -106.5q-9 -173 -18.5 -256t-36.5 -83z" />
    <glyph glyph-name="product" horiz-adv-x="363" 
d="M46 -14q-14 0 -22.5 20.5t-14.5 62.5t-10 105.5t-8 150.5h18q2 -50 5 -106.5t7 -104t10 -78.5t15 -31t14.5 31t9.5 78.5t7 104t6 106.5q9 173 18 255.5t35 82.5q27 0 35.5 -82.5t17.5 -255.5q3 -50 5.5 -106.5t7 -104t10.5 -78.5t15 -31t14.5 31t10 78.5t7 104t5.5 106.5
q9 173 17.5 255.5t35.5 82.5t36.5 -82.5t18.5 -255.5h-18q-3 50 -5.5 106.5t-7 103.5t-10 78t-14.5 31t-14.5 -31t-9 -78t-6 -103.5t-5.5 -106.5q-9 -173 -18.5 -256t-36.5 -83t-36.5 83t-18.5 256q-3 50 -5.5 106.5t-6 103.5t-9.5 78t-15 31q-8 0 -13.5 -31t-9.5 -78
t-6.5 -103.5t-5.5 -106.5q-9 -173 -18.5 -256t-36.5 -83z" />
    <glyph glyph-name="pi" horiz-adv-x="414" 
d="M205 -10q-86 0 -130.5 82.5t-44.5 254.5q0 170 45.5 251.5t130.5 81.5q87 0 132.5 -80t45.5 -251q0 -91 -11.5 -155t-34 -105t-56 -60t-77.5 -19zM205 21q38 0 65 16t44.5 52t26 95t8.5 145q0 159 -35 229t-108 70t-107.5 -71.5t-34.5 -229.5q0 -82 8.5 -140t25.5 -95
t43.5 -54t63.5 -17zM126 545h80q50 0 76.5 -33.5t26.5 -111.5q0 -75 -25 -107.5t-78 -32.5h-24v-162h-56v447zM204 303q28 0 38.5 14.5t10.5 52.5v67q0 35 -11 47.5t-40 12.5h-20v-194h22z" />
    <glyph glyph-name="integral" horiz-adv-x="363" 
d="M46 -14q-14 0 -22.5 20.5t-14.5 62.5t-10 105.5t-8 150.5h18q2 -50 5 -106.5t7 -104t10 -78.5t15 -31t14.5 31t9.5 78.5t7 104t6 106.5q9 173 18 255.5t35 82.5q27 0 35.5 -82.5t17.5 -255.5q3 -50 5.5 -106.5t7 -104t10.5 -78.5t15 -31t14.5 31t10 78.5t7 104t5.5 106.5
q9 173 17.5 255.5t35.5 82.5t36.5 -82.5t18.5 -255.5h-18q-3 50 -5.5 106.5t-7 103.5t-10 78t-14.5 31t-14.5 -31t-9 -78t-6 -103.5t-5.5 -106.5q-9 -173 -18.5 -256t-36.5 -83t-36.5 83t-18.5 256q-3 50 -5.5 106.5t-6 103.5t-9.5 78t-15 31q-8 0 -13.5 -31t-9.5 -78
t-6.5 -103.5t-5.5 -106.5q-9 -173 -18.5 -256t-36.5 -83z" />
    <glyph glyph-name="Omega" horiz-adv-x="363" 
d="M46 -14q-14 0 -22.5 20.5t-14.5 62.5t-10 105.5t-8 150.5h18q2 -50 5 -106.5t7 -104t10 -78.5t15 -31t14.5 31t9.5 78.5t7 104t6 106.5q9 173 18 255.5t35 82.5q27 0 35.5 -82.5t17.5 -255.5q3 -50 5.5 -106.5t7 -104t10.5 -78.5t15 -31t14.5 31t10 78.5t7 104t5.5 106.5
q9 173 17.5 255.5t35.5 82.5t36.5 -82.5t18.5 -255.5h-18q-3 50 -5.5 106.5t-7 103.5t-10 78t-14.5 31t-14.5 -31t-9 -78t-6 -103.5t-5.5 -106.5q-9 -173 -18.5 -256t-36.5 -83t-36.5 83t-18.5 256q-3 50 -5.5 106.5t-6 103.5t-9.5 78t-15 31q-8 0 -13.5 -31t-9.5 -78
t-6.5 -103.5t-5.5 -106.5q-9 -173 -18.5 -256t-36.5 -83z" />
    <glyph glyph-name="logicalnot" horiz-adv-x="363" 
d="M46 -14q-14 0 -22.5 20.5t-14.5 62.5t-10 105.5t-8 150.5h18q2 -50 5 -106.5t7 -104t10 -78.5t15 -31t14.5 31t9.5 78.5t7 104t6 106.5q9 173 18 255.5t35 82.5q27 0 35.5 -82.5t17.5 -255.5q3 -50 5.5 -106.5t7 -104t10.5 -78.5t15 -31t14.5 31t10 78.5t7 104t5.5 106.5
q9 173 17.5 255.5t35.5 82.5t36.5 -82.5t18.5 -255.5h-18q-3 50 -5.5 106.5t-7 103.5t-10 78t-14.5 31t-14.5 -31t-9 -78t-6 -103.5t-5.5 -106.5q-9 -173 -18.5 -256t-36.5 -83t-36.5 83t-18.5 256q-3 50 -5.5 106.5t-6 103.5t-9.5 78t-15 31q-8 0 -13.5 -31t-9.5 -78
t-6.5 -103.5t-5.5 -106.5q-9 -173 -18.5 -256t-36.5 -83z" />
    <glyph glyph-name="radical" horiz-adv-x="317" 
d="M16 375h72l32 -171l16 -168l12 168l92 499h67l-137 -703h-72z" />
    <glyph glyph-name="approxequal" horiz-adv-x="363" 
d="M46 -14q-14 0 -22.5 20.5t-14.5 62.5t-10 105.5t-8 150.5h18q2 -50 5 -106.5t7 -104t10 -78.5t15 -31t14.5 31t9.5 78.5t7 104t6 106.5q9 173 18 255.5t35 82.5q27 0 35.5 -82.5t17.5 -255.5q3 -50 5.5 -106.5t7 -104t10.5 -78.5t15 -31t14.5 31t10 78.5t7 104t5.5 106.5
q9 173 17.5 255.5t35.5 82.5t36.5 -82.5t18.5 -255.5h-18q-3 50 -5.5 106.5t-7 103.5t-10 78t-14.5 31t-14.5 -31t-9 -78t-6 -103.5t-5.5 -106.5q-9 -173 -18.5 -256t-36.5 -83t-36.5 83t-18.5 256q-3 50 -5.5 106.5t-6 103.5t-9.5 78t-15 31q-8 0 -13.5 -31t-9.5 -78
t-6.5 -103.5t-5.5 -106.5q-9 -173 -18.5 -256t-36.5 -83z" />
    <glyph glyph-name="Delta" horiz-adv-x="363" 
d="M46 -14q-14 0 -22.5 20.5t-14.5 62.5t-10 105.5t-8 150.5h18q2 -50 5 -106.5t7 -104t10 -78.5t15 -31t14.5 31t9.5 78.5t7 104t6 106.5q9 173 18 255.5t35 82.5q27 0 35.5 -82.5t17.5 -255.5q3 -50 5.5 -106.5t7 -104t10.5 -78.5t15 -31t14.5 31t10 78.5t7 104t5.5 106.5
q9 173 17.5 255.5t35.5 82.5t36.5 -82.5t18.5 -255.5h-18q-3 50 -5.5 106.5t-7 103.5t-10 78t-14.5 31t-14.5 -31t-9 -78t-6 -103.5t-5.5 -106.5q-9 -173 -18.5 -256t-36.5 -83t-36.5 83t-18.5 256q-3 50 -5.5 106.5t-6 103.5t-9.5 78t-15 31q-8 0 -13.5 -31t-9.5 -78
t-6.5 -103.5t-5.5 -106.5q-9 -173 -18.5 -256t-36.5 -83z" />
    <glyph glyph-name="nonbreakingspace" horiz-adv-x="74" 
 />
    <glyph glyph-name="Agrave" horiz-adv-x="369" 
d="M87 0h-69l126 652h84l124 -652h-79l-23 126h-139zM198 412l-15 187l-17 -187l-45 -229h119zM94 851h82l33 -158h-44z" />
    <glyph glyph-name="Atilde" horiz-adv-x="369" 
d="M87 0h-69l126 652h84l124 -652h-79l-23 126h-139zM198 412l-15 187l-17 -187l-45 -229h119zM222 696q-15 0 -26 7t-20 19l-15 20q-6 8 -9.5 11t-9.5 3q-7 0 -11 -5.5t-4 -22.5v-26h-44q0 32 5 54t14 35t21 18.5t25 5.5q14 0 24 -6t21 -20l15 -20q10 -13 18 -13
q7 0 11 5.5t4 22.5v25h44q0 -32 -5 -53.5t-14 -35t-20.5 -19t-23.5 -5.5z" />
    <glyph glyph-name="Otilde" horiz-adv-x="392" 
d="M195 -9q-85 0 -124.5 81t-39.5 255q0 172 40 252.5t125 80.5t125 -79.5t40 -251.5q0 -91 -9.5 -155.5t-30 -105t-51.5 -59t-75 -18.5zM196 52q20 0 35.5 9t26 33t16.5 65.5t6 107.5v134q0 57 -5.5 94t-16.5 59t-26.5 31t-35.5 9t-35.5 -9.5t-26.5 -32t-17 -60.5t-6 -95
v-133q0 -66 6 -107t17 -64.5t27 -32t35 -8.5zM231 696q-15 0 -26 7t-20 19l-15 20q-6 8 -9.5 11t-9.5 3q-7 0 -11 -5.5t-4 -22.5v-26h-44q0 32 5 54t14 35t21 18.5t25 5.5q14 0 24 -6t21 -20l15 -20q10 -13 18 -13q7 0 11 5.5t4 22.5v25h44q0 -32 -5 -53.5t-14 -35
t-20.5 -19t-23.5 -5.5z" />
    <glyph glyph-name="divide" horiz-adv-x="402" 
d="M189 167v145q0 28 6 39t26 18q20 6 33 12.5t21 18.5t12 31.5t7 52.5l2 33q3 31 -0.5 50.5t-11.5 30.5t-21.5 15t-30.5 4q-22 0 -38.5 -3.5t-33.5 -8.5l-10 55q19 8 40.5 14.5t53.5 6.5q28 0 52 -8t41.5 -25.5t27.5 -45.5t10 -69q0 -99 -28.5 -148.5t-96.5 -64.5l-17 -159
zM57 358l-44 296l77 13l45 -295l14 -206l-32 -7zM173 -8q-20 0 -36 15.5t-16 39.5q0 25 16 40.5t36 15.5q22 0 38 -15.5t16 -40.5q0 -24 -16 -39.5t-38 -15.5z" />
    <glyph glyph-name="lozenge" horiz-adv-x="363" 
d="M46 -14q-14 0 -22.5 20.5t-14.5 62.5t-10 105.5t-8 150.5h18q2 -50 5 -106.5t7 -104t10 -78.5t15 -31t14.5 31t9.5 78.5t7 104t6 106.5q9 173 18 255.5t35 82.5q27 0 35.5 -82.5t17.5 -255.5q3 -50 5.5 -106.5t7 -104t10.5 -78.5t15 -31t14.5 31t10 78.5t7 104t5.5 106.5
q9 173 17.5 255.5t35.5 82.5t36.5 -82.5t18.5 -255.5h-18q-3 50 -5.5 106.5t-7 103.5t-10 78t-14.5 31t-14.5 -31t-9 -78t-6 -103.5t-5.5 -106.5q-9 -173 -18.5 -256t-36.5 -83t-36.5 83t-18.5 256q-3 50 -5.5 106.5t-6 103.5t-9.5 78t-15 31q-8 0 -13.5 -31t-9.5 -78
t-6.5 -103.5t-5.5 -106.5q-9 -173 -18.5 -256t-36.5 -83z" />
    <glyph glyph-name="ydieresis" horiz-adv-x="305" 
d="M118 10l-107 514h74l56 -301l14 -182l14 182l56 301h68l-139 -681h-70zM212 577q-17 0 -30 13t-13 33t13 33t30 13q18 0 30.5 -13t12.5 -33t-12.5 -33t-30.5 -13zM90 577q-18 0 -30.5 13t-12.5 33t12.5 33t30.5 13q17 0 30 -13t13 -33t-13 -33t-30 -13z" />
    <glyph glyph-name="Ydieresis" horiz-adv-x="348" 
d="M139 236l-125 415h81l69 -257l16 -141l14 141l67 257h73l-117 -412v-239h-78v236zM236 700q-17 0 -30 13t-13 33t13 33t30 13q18 0 30.5 -13t12.5 -33t-12.5 -33t-30.5 -13zM114 700q-18 0 -30.5 13t-12.5 33t12.5 33t30.5 13q17 0 30 -13t13 -33t-13 -33t-30 -13z" />
    <glyph glyph-name="Acircumflex" horiz-adv-x="369" 
d="M87 0h-69l126 652h84l124 -652h-79l-23 126h-139zM198 412l-15 187l-17 -187l-45 -229h119zM153 854h59l73 -161h-65l-25 63l-14 73l-14 -73l-27 -63h-59z" />
    <glyph glyph-name="Ecircumflex" horiz-adv-x="321" 
d="M51 651h231v-67h-155v-220h134v-64h-134v-234h165v-66h-241v651zM135 854h59l73 -161h-65l-25 63l-14 73l-14 -73l-27 -63h-59z" />
    <glyph glyph-name="Aacute" horiz-adv-x="369" 
d="M87 0h-69l126 652h84l124 -652h-79l-23 126h-139zM198 412l-15 187l-17 -187l-45 -229h119zM191 851h81l-70 -158h-44z" />
    <glyph glyph-name="Edieresis" horiz-adv-x="321" 
d="M51 651h231v-67h-155v-220h134v-64h-134v-234h165v-66h-241v651zM229 700q-17 0 -30 13t-13 33t13 33t30 13q18 0 30.5 -13t12.5 -33t-12.5 -33t-30.5 -13zM107 700q-18 0 -30.5 13t-12.5 33t12.5 33t30.5 13q17 0 30 -13t13 -33t-13 -33t-30 -13z" />
    <glyph glyph-name="Egrave" horiz-adv-x="321" 
d="M51 651h231v-67h-155v-220h134v-64h-134v-234h165v-66h-241v651zM80 851h82l33 -158h-44z" />
    <glyph glyph-name="Iacute" horiz-adv-x="184" 
d="M53 651h78v-651h-78v651zM98 851h81l-70 -158h-44z" />
    <glyph glyph-name="Icircumflex" horiz-adv-x="184" 
d="M53 651h78v-651h-78v651zM62 854h59l73 -161h-65l-25 63l-14 73l-14 -73l-27 -63h-59z" />
    <glyph glyph-name="Idieresis" horiz-adv-x="184" 
d="M53 651h78v-651h-78v651zM152 700q-17 0 -30 13t-13 33t13 33t30 13q18 0 30.5 -13t12.5 -33t-12.5 -33t-30.5 -13zM30 700q-18 0 -30.5 13t-12.5 33t12.5 33t30.5 13q17 0 30 -13t13 -33t-13 -33t-30 -13z" />
    <glyph glyph-name="Igrave" horiz-adv-x="184" 
d="M53 651h78v-651h-78v651zM4 851h82l33 -158h-44z" />
    <glyph glyph-name="Oacute" horiz-adv-x="392" 
d="M195 -9q-85 0 -124.5 81t-39.5 255q0 172 40 252.5t125 80.5t125 -79.5t40 -251.5q0 -91 -9.5 -155.5t-30 -105t-51.5 -59t-75 -18.5zM196 52q20 0 35.5 9t26 33t16.5 65.5t6 107.5v134q0 57 -5.5 94t-16.5 59t-26.5 31t-35.5 9t-35.5 -9.5t-26.5 -32t-17 -60.5t-6 -95
v-133q0 -66 6 -107t17 -64.5t27 -32t35 -8.5zM203 851h81l-70 -158h-44z" />
    <glyph glyph-name="Ocircumflex" horiz-adv-x="392" 
d="M195 -9q-85 0 -124.5 81t-39.5 255q0 172 40 252.5t125 80.5t125 -79.5t40 -251.5q0 -91 -9.5 -155.5t-30 -105t-51.5 -59t-75 -18.5zM196 52q20 0 35.5 9t26 33t16.5 65.5t6 107.5v134q0 57 -5.5 94t-16.5 59t-26.5 31t-35.5 9t-35.5 -9.5t-26.5 -32t-17 -60.5t-6 -95
v-133q0 -66 6 -107t17 -64.5t27 -32t35 -8.5zM165 854h59l73 -161h-65l-25 63l-14 73l-14 -73l-27 -63h-59z" />
    <glyph glyph-name="apple" horiz-adv-x="363" 
d="M46 -14q-14 0 -22.5 20.5t-14.5 62.5t-10 105.5t-8 150.5h18q2 -50 5 -106.5t7 -104t10 -78.5t15 -31t14.5 31t9.5 78.5t7 104t6 106.5q9 173 18 255.5t35 82.5q27 0 35.5 -82.5t17.5 -255.5q3 -50 5.5 -106.5t7 -104t10.5 -78.5t15 -31t14.5 31t10 78.5t7 104t5.5 106.5
q9 173 17.5 255.5t35.5 82.5t36.5 -82.5t18.5 -255.5h-18q-3 50 -5.5 106.5t-7 103.5t-10 78t-14.5 31t-14.5 -31t-9 -78t-6 -103.5t-5.5 -106.5q-9 -173 -18.5 -256t-36.5 -83t-36.5 83t-18.5 256q-3 50 -5.5 106.5t-6 103.5t-9.5 78t-15 31q-8 0 -13.5 -31t-9.5 -78
t-6.5 -103.5t-5.5 -106.5q-9 -173 -18.5 -256t-36.5 -83z" />
    <glyph glyph-name="Ograve" horiz-adv-x="392" 
d="M195 -9q-85 0 -124.5 81t-39.5 255q0 172 40 252.5t125 80.5t125 -79.5t40 -251.5q0 -91 -9.5 -155.5t-30 -105t-51.5 -59t-75 -18.5zM196 52q20 0 35.5 9t26 33t16.5 65.5t6 107.5v134q0 57 -5.5 94t-16.5 59t-26.5 31t-35.5 9t-35.5 -9.5t-26.5 -32t-17 -60.5t-6 -95
v-133q0 -66 6 -107t17 -64.5t27 -32t35 -8.5zM106 851h82l33 -158h-44z" />
    <glyph glyph-name="Uacute" horiz-adv-x="393" 
d="M264 651h78v-651h-50l-22 54l-28 -49q-9 -5 -26 -9.5t-39 -4.5q-31 0 -55.5 10.5t-41 35t-25.5 64.5t-9 99v451h79v-497q0 -59 16.5 -80.5t51.5 -21.5q25 0 40 8t31 21v570zM204 851h81l-70 -158h-44z" />
    <glyph glyph-name="Ucircumflex" horiz-adv-x="393" 
d="M264 651h78v-651h-50l-22 54l-28 -49q-9 -5 -26 -9.5t-39 -4.5q-31 0 -55.5 10.5t-41 35t-25.5 64.5t-9 99v451h79v-497q0 -59 16.5 -80.5t51.5 -21.5q25 0 40 8t31 21v570zM164 854h59l73 -161h-65l-25 63l-14 73l-14 -73l-27 -63h-59z" />
    <glyph glyph-name="Ugrave" horiz-adv-x="393" 
d="M264 651h78v-651h-50l-22 54l-28 -49q-9 -5 -26 -9.5t-39 -4.5q-31 0 -55.5 10.5t-41 35t-25.5 64.5t-9 99v451h79v-497q0 -59 16.5 -80.5t51.5 -21.5q25 0 40 8t31 21v570zM108 851h82l33 -158h-44z" />
    <glyph glyph-name="Euro" horiz-adv-x="329" 
d="M15 355v56h45q4 67 14.5 114t29.5 77t46.5 44t64.5 14q30 0 52 -8t39 -19l-13 -57q-19 8 -35.5 13t-38.5 5q-20 0 -35.5 -8t-26 -28.5t-16 -56t-6.5 -90.5h114v-56h-114v-67h114v-56h-114q2 -54 8 -89t16.5 -54.5t26 -27t35.5 -7.5q23 0 40.5 6.5t37.5 17.5l15 -55
q-17 -13 -41 -22.5t-57 -9.5q-38 0 -65.5 14t-46.5 43t-29 75t-14 109h-46v56h43v39v28h-43z" />
    <glyph glyph-name="Eth" horiz-adv-x="391" 
d="M12 299v64h42v288h122q45 0 79.5 -16t58 -53.5t35.5 -99.5t12 -154q0 -99 -12.5 -162.5t-36.5 -100.5t-59 -51t-80 -14h-119v299h-42zM203 363v-64h-72v-236h39q27 0 47.5 7.5t34.5 29.5t21 61.5t7 103.5v132q0 56 -7 92t-20.5 57t-34 29.5t-48.5 8.5h-39v-221h72z" />
    </font>
</defs>
</svg>
