<svg id="Capa_1" data-name="Capa 1" xmlns="http://www.w3.org/2000/svg" viewBox="0 0 809.97 671.59"><defs><style>.cls-1{fill:#e30613;}.cls-1,.cls-2,.cls-3{stroke:#1d1d1b;stroke-miterlimit:10;}.cls-2{fill:#009fe3;}.cls-3,.cls-4{fill:#1d1d1b;}</style></defs><rect class="cls-1" x="0.5" y="175.56" width="528.21" height="438.46"/><ellipse class="cls-2" cx="641.53" cy="446.07" rx="167.95" ry="139.74"/><ellipse class="cls-3" cx="179.35" cy="143.5" rx="55.77" ry="17.95"/><path class="cls-4" d="M251,103A433.18,433.18,0,0,0,209.4,242.17c-2.81,23-4.77,47.15-2.05,70.29,2.35,19.9,9.69,39.22,26.08,51.67,29.44,22.37,72.43,16.19,103.29.41,36.36-18.6,64.74-50.25,83.93-85.89,22.19-41.2,31.85-87.69,35.07-134,1.74-25.13,1.65-50.34.78-75.5-.73-21.09-2-44.28-19.3-59C423.54-1.46,404.62-5.47,387.15-2.73,367.22.4,349.81,13.11,337,28.21c-27,31.88-38.52,75.66-35.7,116.88s20.1,80.86,50,109.76a177.28,177.28,0,0,0,108,48.9,161.42,161.42,0,0,0,29.41-.31l-1.77-.73,14,15.78a2.51,2.51,0,0,0,3.92-.5c18.87-30.77,54.71-45.1,89.35-48.1,19.62-1.7,39.42-.39,58.93,1.93a429.69,429.69,0,0,1,52.56,9.58c68.07,16.83,133.41,51.44,178.55,106.06,22.08,26.73,39,58.2,46.55,92.17a168,168,0,0,1-6.67,96.31c-11.46,30-32.51,56.26-61,71.5-28,15-61.27,19-92.32,13.26a146.28,146.28,0,0,1-82.24-45.62c-21.43-23.63-35.26-53.64-41-84.92a179.88,179.88,0,0,1-2.22-48c1.47-16.71,4.81-35.42,16.71-48.1,11-11.7,27.8-15.65,43.34-13.94,17.05,1.87,32.3,11.05,44.7,22.5,13.18,12.18,24,26.95,33.41,42.16a263.77,263.77,0,0,1,24.42,50.93c5.87,16.62,11.94,35.2,10.09,53.06a38.18,38.18,0,0,1-11.09,23.73c-6.28,6.14-14.36,10.21-22.52,13.25-36,13.4-75.52,8.38-111.3-3-34.2-10.9-66.87-27.38-97.36-46.2A518.23,518.23,0,0,1,423.92,433.59c-22.35-31.89-41.1-66.15-57.9-101.24-8.46-17.69-16.45-35.6-24.18-53.62s-17.36-37.45-15.35-57.56c1.45-14.63,10.76-29.68,25.86-32.9,2-.42,2.22-2.84,1.1-4.18a128,128,0,0,1-26.8-56.18L324.9,131c26.86-9.12,59.27,5.24,70,31.7,1.19,2.94,6,1.65,4.82-1.33-11.7-28.87-46.48-45.26-76.15-35.19a2.57,2.57,0,0,0-1.75,3.07,133.37,133.37,0,0,0,28.1,58.39l1.1-4.18c-15.3,3.26-25.55,17.33-28.67,32.05-4.06,19.21,3.6,38.5,11,55.91,16.14,38.13,33.25,75.95,53.47,112.12,19.07,34.12,41.09,66.52,66.82,96A524.78,524.78,0,0,0,534,554.06a519.42,519.42,0,0,0,94.62,56.44c35.34,16.23,73.87,29.32,113.24,28.22,18.48-.52,37.49-4.19,54.08-12.6,7.47-3.79,14.4-8.9,19.35-15.74,5.28-7.31,7.6-16.23,8-25.15.76-18.45-5.5-37.39-11.81-54.48A270.41,270.41,0,0,0,785.78,479c-18.34-28.72-44.15-60-80.39-63.9-15.81-1.71-32.73,2.25-44.64,13.2-12.84,11.8-17.39,29.62-19.58,46.29-8.59,65.49,20,137.58,77.91,172.14,56.91,34,136.15,28,181.51-22.48,22.24-24.75,35-57,38.45-89.88,3.6-34.61-4.09-69.43-19.09-100.63C888,367.28,825.9,319.75,758.5,293c-34.51-13.69-70.92-22.28-107.77-26.47-38.67-4.39-80.24-4.47-115,15.45-14.25,8.16-26.62,19.43-35.23,33.47l3.92-.5-12.55-14.2c-1.89-2.14-2.47-2.36-5.34-2.1-2.54.22-5.08.39-7.62.49a159.75,159.75,0,0,1-29.24-1.47A172.47,172.47,0,0,1,394,279.58c-35.53-18.71-63.79-49.56-77.66-87.41-14.08-38.46-14-81.93.84-120.17,13.64-35.24,44.07-73.9,86-70.36,18.71,1.58,36.3,12.06,43.14,30.07,4,10.6,4.59,22.12,5,33.33.47,12.23.76,24.48.76,36.72,0,47.78-4.43,96.37-21,141.52-13.65,37.19-35.95,72-66.79,97.21-28.31,23.16-66.49,39.56-103.5,30.8-17.77-4.2-32.87-15-41-31.54-9.59-19.56-9.08-42.78-8.18-64a426.23,426.23,0,0,1,29.41-138.21q6.44-16.28,14.22-32c1.42-2.88-2.89-5.42-4.32-2.53Z" transform="translate(-194.32 3.56)"/></svg>